<svg id="Layer_1" data-name="Layer 1" xmlns="http://www.w3.org/2000/svg" xmlns:xlink="http://www.w3.org/1999/xlink" viewBox="0 0 960 960"><defs><style>.cls-1{fill:#ffcdba;}.cls-2{clip-path:url(#clip-path);}.cls-3{clip-path:url(#clip-path-2);}.cls-4{clip-path:url(#clip-path-3);}.cls-5{clip-path:url(#clip-path-4);}.cls-6{clip-path:url(#clip-path-5);}</style><clipPath id="clip-path"><path class="cls-1" d="M320.92,471.57H276.58V196.8q0-56.81,53.11-56.8h33.25q53.1,0,53.11,56.8V471.57H371.71V350.12H320.92Zm50.79-161.63V199.57q0-19.4-19.39-19.39h-12q-19.4,0-19.39,19.39V309.94Z"/></clipPath><clipPath id="clip-path-2"><path class="cls-1" d="M455.29,820V140h44.34V820Z"/></clipPath><clipPath id="clip-path-3"><path class="cls-1" d="M541.18,140H628q50.79,0,50.8,56.8v81.74q0,43.41-26.32,54.95l30.94,138.08h-42L612.3,337.65H585.52V471.57H541.18Zm44.34,159.78h29.09q19.85,0,19.86-24V204.19q0-24-19.86-24H585.52Z"/></clipPath><clipPath id="clip-path-4"><path class="cls-1" d="M276.62,488.43h82.23q54.5,0,54.51,56.8v98.36q0,56.35-54,56.34H321.73V820H276.62Zm45.11,171.33h28.66q17.85,0,17.86-19.4V548q0-19.39-20.21-19.39H321.73Z"/></clipPath><clipPath id="clip-path-5"><path class="cls-1" d="M592.23,820q-51.35,0-51.33-56.34V545.23q0-56.81,50.89-56.8h40.7q50.88,0,50.89,56.8V763.66q0,56.34-51.33,56.34Zm10.17-40.18h21.69q16.8,0,16.81-19.39V548q0-19.39-19-19.39H602q-18.59,0-18.58,19.39V760.43Q583.38,779.83,602.4,779.82Z"/></clipPath></defs><path class="cls-1" d="M320.92,471.57H276.58V196.8q0-56.81,53.11-56.8h33.25q53.1,0,53.11,56.8V471.57H371.71V350.12H320.92Zm50.79-161.63V199.57q0-19.4-19.39-19.39h-12q-19.4,0-19.39,19.39V309.94Z"/><g class="cls-2"><polygon class="cls-1" points="322.91 180.18 320.92 181.94 320.92 180.18 322.91 180.18"/><polygon class="cls-1" points="326.81 180.18 320.92 185.39 320.92 181.94 322.91 180.18 326.81 180.18"/><polygon class="cls-1" points="330.72 180.18 320.92 188.84 320.92 185.39 326.81 180.18 330.72 180.18"/><polygon class="cls-1" points="334.62 180.18 320.92 192.29 320.92 188.84 330.72 180.18 334.62 180.18"/><polygon class="cls-1" points="338.53 180.18 320.92 195.75 320.92 192.29 334.62 180.18 338.53 180.18"/><polygon class="cls-1" points="342.43 180.18 320.92 199.2 320.92 195.75 338.53 180.18 342.43 180.18"/><polygon class="cls-1" points="346.34 180.18 320.92 202.65 320.92 199.2 342.43 180.18 346.34 180.18"/><polygon class="cls-1" points="350.24 180.18 320.92 206.1 320.92 202.65 346.34 180.18 350.24 180.18"/><polygon class="cls-1" points="354.15 180.18 320.92 209.55 320.92 206.1 350.24 180.18 354.15 180.18"/><polygon class="cls-1" points="358.05 180.18 320.92 213.01 320.92 209.55 354.15 180.18 358.05 180.18"/><polygon class="cls-1" points="361.95 180.18 320.92 216.46 320.92 213.01 358.05 180.18 361.95 180.18"/><polygon class="cls-1" points="365.86 180.18 320.92 219.91 320.92 216.46 361.95 180.18 365.86 180.18"/><polygon class="cls-1" points="368.67 180.18 369.15 180.72 320.92 223.36 320.92 219.91 365.86 180.18 368.67 180.18"/><polygon class="cls-1" points="369.15 180.72 370.86 182.66 320.92 226.81 320.92 223.36 369.15 180.72"/><polygon class="cls-1" points="370.86 182.66 371.71 183.62 371.71 185.36 320.92 230.26 320.92 226.81 370.86 182.66"/><polygon class="cls-1" points="371.71 188.81 320.92 233.72 320.92 230.26 371.71 185.36 371.71 188.81"/><polygon class="cls-1" points="371.71 192.26 320.92 237.17 320.92 233.72 371.71 188.81 371.71 192.26"/><polygon class="cls-1" points="371.71 195.71 320.92 240.62 320.92 237.17 371.71 192.26 371.71 195.71"/><polygon class="cls-1" points="371.71 199.16 320.92 244.07 320.92 240.62 371.71 195.71 371.71 199.16"/><polygon class="cls-1" points="371.71 202.62 320.92 247.53 320.92 244.07 371.71 199.16 371.71 202.62"/><polygon class="cls-1" points="371.71 206.07 320.92 250.98 320.92 247.53 371.71 202.62 371.71 206.07"/><polygon class="cls-1" points="371.71 209.52 320.92 254.43 320.92 250.98 371.71 206.07 371.71 209.52"/><polygon class="cls-1" points="371.71 212.97 320.92 257.88 320.92 254.43 371.71 209.52 371.71 212.97"/><polygon class="cls-1" points="371.71 216.42 320.92 261.33 320.92 257.88 371.71 212.97 371.71 216.42"/><polygon class="cls-1" points="371.71 219.88 320.92 264.78 320.92 261.33 371.71 216.42 371.71 219.88"/><polygon class="cls-1" points="371.71 223.33 320.92 268.24 320.92 264.78 371.71 219.88 371.71 223.33"/><polygon class="cls-1" points="371.71 226.78 320.92 271.69 320.92 268.24 371.71 223.33 371.71 226.78"/><polygon class="cls-1" points="371.71 230.23 320.92 275.14 320.92 271.69 371.71 226.78 371.71 230.23"/><polygon class="cls-1" points="371.71 233.68 320.92 278.59 320.92 275.14 371.71 230.23 371.71 233.68"/><polygon class="cls-1" points="371.71 237.13 320.92 282.04 320.92 278.59 371.71 233.68 371.71 237.13"/><polygon class="cls-1" points="371.71 240.59 320.92 285.5 320.92 282.04 371.71 237.13 371.71 240.59"/><polygon class="cls-1" points="371.71 244.04 320.92 288.95 320.92 285.5 371.71 240.59 371.71 244.04"/><polygon class="cls-1" points="371.71 247.49 320.92 292.4 320.92 288.95 371.71 244.04 371.71 247.49"/><polygon class="cls-1" points="371.71 250.94 320.92 295.85 320.92 292.4 371.71 247.49 371.71 250.94"/><polygon class="cls-1" points="371.71 254.4 320.92 299.3 320.92 295.85 371.71 250.94 371.71 254.4"/><polygon class="cls-1" points="371.71 257.85 320.92 302.75 320.92 299.3 371.71 254.4 371.71 257.85"/><polygon class="cls-1" points="371.71 261.3 320.92 306.21 320.92 302.75 371.71 257.85 371.71 261.3"/><polygon class="cls-1" points="371.71 264.75 320.92 309.66 320.92 306.21 371.71 261.3 371.71 264.75"/><polygon class="cls-1" points="371.71 268.2 324.5 309.94 320.92 309.94 320.92 309.66 371.71 264.75 371.71 268.2"/><polygon class="cls-1" points="371.71 271.65 328.4 309.94 324.5 309.94 371.71 268.2 371.71 271.65"/><polygon class="cls-1" points="371.71 275.11 332.31 309.94 328.4 309.94 371.71 271.65 371.71 275.11"/><polygon class="cls-1" points="371.71 278.56 336.21 309.94 332.31 309.94 371.71 275.11 371.71 278.56"/><polygon class="cls-1" points="371.71 282.01 340.12 309.94 336.21 309.94 371.71 278.56 371.71 282.01"/><polygon class="cls-1" points="371.71 285.46 344.02 309.94 340.12 309.94 371.71 282.01 371.71 285.46"/><polygon class="cls-1" points="371.71 288.91 347.93 309.94 344.02 309.94 371.71 285.46 371.71 288.91"/><polygon class="cls-1" points="371.71 292.37 351.83 309.94 347.93 309.94 371.71 288.91 371.71 292.37"/><polygon class="cls-1" points="371.71 295.82 355.74 309.94 351.83 309.94 371.71 292.37 371.71 295.82"/><polygon class="cls-1" points="371.71 299.27 359.64 309.94 355.74 309.94 371.71 295.82 371.71 299.27"/><polygon class="cls-1" points="371.71 302.72 363.55 309.94 359.64 309.94 371.71 299.27 371.71 302.72"/><polygon class="cls-1" points="371.71 306.17 367.45 309.94 363.55 309.94 371.71 302.72 371.71 306.17"/><polygon class="cls-1" points="371.71 309.63 371.36 309.94 367.45 309.94 371.71 306.17 371.71 309.63"/><polygon class="cls-1" points="371.36 309.94 371.71 309.63 371.71 309.94 371.36 309.94"/><polygon class="cls-1" points="309.79 140 276.58 169.35 276.58 140 309.79 140"/><polygon class="cls-1" points="313.69 140 276.58 172.81 276.58 169.35 309.79 140 313.69 140"/><polygon class="cls-1" points="317.6 140 276.58 176.26 276.58 172.81 313.69 140 317.6 140"/><polygon class="cls-1" points="321.5 140 276.58 179.71 276.58 176.26 317.6 140 321.5 140"/><polygon class="cls-1" points="325.4 140 276.58 183.16 276.58 179.71 321.5 140 325.4 140"/><polygon class="cls-1" points="329.31 140 276.58 186.61 276.58 183.16 325.4 140 329.31 140"/><polygon class="cls-1" points="333.21 140 276.58 190.06 276.58 186.61 329.31 140 333.21 140"/><polygon class="cls-1" points="337.12 140 276.58 193.52 276.58 190.06 333.21 140 337.12 140"/><polygon class="cls-1" points="341.02 140 276.58 196.97 276.58 193.52 337.12 140 341.02 140"/><polygon class="cls-1" points="344.93 140 276.58 200.42 276.58 196.97 341.02 140 344.93 140"/><polygon class="cls-1" points="348.83 140 276.58 203.87 276.58 200.42 344.93 140 348.83 140"/><polygon class="cls-1" points="352.74 140 276.58 207.32 276.58 203.87 348.83 140 352.74 140"/><polygon class="cls-1" points="356.64 140 276.58 210.78 276.58 207.32 352.74 140 356.64 140"/><polygon class="cls-1" points="360.55 140 276.58 214.23 276.58 210.78 356.64 140 360.55 140"/><polygon class="cls-1" points="364.45 140 276.58 217.68 276.58 214.23 360.55 140 364.45 140"/><polygon class="cls-1" points="368.36 140 276.58 221.13 276.58 217.68 364.45 140 368.36 140"/><polygon class="cls-1" points="372.26 140 276.58 224.58 276.58 221.13 368.36 140 372.26 140"/><polygon class="cls-1" points="376.16 140 276.58 228.03 276.58 224.58 372.26 140 376.16 140"/><polygon class="cls-1" points="380.07 140 276.58 231.49 276.58 228.03 376.16 140 380.07 140"/><polygon class="cls-1" points="383.97 140 276.58 234.94 276.58 231.49 380.07 140 383.97 140"/><polygon class="cls-1" points="387.88 140 276.58 238.39 276.58 234.94 383.97 140 387.88 140"/><polygon class="cls-1" points="391.78 140 276.58 241.84 276.58 238.39 387.88 140 391.78 140"/><polygon class="cls-1" points="395.69 140 276.58 245.29 276.58 241.84 391.78 140 395.69 140"/><polygon class="cls-1" points="399.59 140 276.58 248.75 276.58 245.29 395.69 140 399.59 140"/><polygon class="cls-1" points="401.98 140 402.64 140.75 276.58 252.2 276.58 248.75 399.59 140 401.98 140"/><polygon class="cls-1" points="402.64 140.75 404.36 142.69 276.58 255.65 276.58 252.2 402.64 140.75"/><polygon class="cls-1" points="404.36 142.69 406.07 144.63 276.58 259.1 276.58 255.65 404.36 142.69"/><polygon class="cls-1" points="406.07 144.63 407.78 146.57 276.58 262.55 276.58 259.1 406.07 144.63"/><polygon class="cls-1" points="407.78 146.57 409.5 148.5 276.58 266.01 276.58 262.55 407.78 146.57"/><polygon class="cls-1" points="409.5 148.5 411.21 150.44 276.58 269.46 276.58 266.01 409.5 148.5"/><polygon class="cls-1" points="411.21 150.44 412.92 152.38 276.58 272.91 276.58 269.46 411.21 150.44"/><polygon class="cls-1" points="412.92 152.38 414.63 154.32 276.58 276.36 276.58 272.91 412.92 152.38"/><polygon class="cls-1" points="414.63 154.32 416.05 155.91 416.05 156.52 276.58 279.81 276.58 276.36 414.63 154.32"/><polygon class="cls-1" points="416.05 159.97 276.58 283.26 276.58 279.81 416.05 156.52 416.05 159.97"/><polygon class="cls-1" points="416.05 163.42 276.58 286.72 276.58 283.26 416.05 159.97 416.05 163.42"/><polygon class="cls-1" points="416.05 166.88 276.58 290.17 276.58 286.72 416.05 163.42 416.05 166.88"/><polygon class="cls-1" points="416.05 170.33 276.58 293.62 276.58 290.17 416.05 166.88 416.05 170.33"/><polygon class="cls-1" points="416.05 173.78 276.58 297.07 276.58 293.62 416.05 170.33 416.05 173.78"/><polygon class="cls-1" points="416.05 177.23 276.58 300.52 276.58 297.07 416.05 173.78 416.05 177.23"/><polygon class="cls-1" points="416.05 180.68 276.58 303.98 276.58 300.52 416.05 177.23 416.05 180.68"/><polygon class="cls-1" points="416.05 184.13 276.58 307.43 276.58 303.98 416.05 180.68 416.05 184.13"/><polygon class="cls-1" points="416.05 187.59 276.58 310.88 276.58 307.43 416.05 184.13 416.05 187.59"/><polygon class="cls-1" points="416.05 191.04 276.58 314.33 276.58 310.88 416.05 187.59 416.05 191.04"/><polygon class="cls-1" points="416.05 194.49 276.58 317.78 276.58 314.33 416.05 191.04 416.05 194.49"/><polygon class="cls-1" points="416.05 197.94 276.58 321.24 276.58 317.78 416.05 194.49 416.05 197.94"/><polygon class="cls-1" points="416.05 201.4 276.58 324.69 276.58 321.24 416.05 197.94 416.05 201.4"/><polygon class="cls-1" points="416.05 204.85 276.58 328.14 276.58 324.69 416.05 201.4 416.05 204.85"/><polygon class="cls-1" points="416.05 208.3 276.58 331.59 276.58 328.14 416.05 204.85 416.05 208.3"/><polygon class="cls-1" points="416.05 211.75 276.58 335.04 276.58 331.59 416.05 208.3 416.05 211.75"/><polygon class="cls-1" points="416.05 215.2 276.58 338.5 276.58 335.04 416.05 211.75 416.05 215.2"/><polygon class="cls-1" points="416.05 218.65 276.58 341.95 276.58 338.5 416.05 215.2 416.05 218.65"/><polygon class="cls-1" points="416.05 222.11 276.58 345.4 276.58 341.95 416.05 218.65 416.05 222.11"/><polygon class="cls-1" points="416.05 225.56 276.58 348.85 276.58 345.4 416.05 222.11 416.05 225.56"/><polygon class="cls-1" points="416.05 229.01 276.58 352.3 276.58 348.85 416.05 225.56 416.05 229.01"/><polygon class="cls-1" points="416.05 232.46 276.58 355.75 276.58 352.3 416.05 229.01 416.05 232.46"/><polygon class="cls-1" points="416.05 235.91 276.58 359.21 276.58 355.75 416.05 232.46 416.05 235.91"/><polygon class="cls-1" points="416.05 239.37 276.58 362.66 276.58 359.21 416.05 235.91 416.05 239.37"/><polygon class="cls-1" points="416.05 242.82 276.58 366.11 276.58 362.66 416.05 239.37 416.05 242.82"/><polygon class="cls-1" points="416.05 246.27 276.58 369.56 276.58 366.11 416.05 242.82 416.05 246.27"/><polygon class="cls-1" points="416.05 249.72 276.58 373.01 276.58 369.56 416.05 246.27 416.05 249.72"/><polygon class="cls-1" points="416.05 253.17 276.58 376.47 276.58 373.01 416.05 249.72 416.05 253.17"/><polygon class="cls-1" points="416.05 256.63 276.58 379.92 276.58 376.47 416.05 253.17 416.05 256.63"/><polygon class="cls-1" points="416.05 260.08 276.58 383.37 276.58 379.92 416.05 256.63 416.05 260.08"/><polygon class="cls-1" points="416.05 263.53 276.58 386.82 276.58 383.37 416.05 260.08 416.05 263.53"/><polygon class="cls-1" points="416.05 266.98 276.58 390.27 276.58 386.82 416.05 263.53 416.05 266.98"/><polygon class="cls-1" points="416.05 270.43 276.58 393.73 276.58 390.27 416.05 266.98 416.05 270.43"/><polygon class="cls-1" points="416.05 273.88 276.58 397.18 276.58 393.73 416.05 270.43 416.05 273.88"/><polygon class="cls-1" points="416.05 277.34 276.58 400.63 276.58 397.18 416.05 273.88 416.05 277.34"/><polygon class="cls-1" points="416.05 280.79 276.58 404.08 276.58 400.63 416.05 277.34 416.05 280.79"/><polygon class="cls-1" points="416.05 284.24 276.58 407.53 276.58 404.08 416.05 280.79 416.05 284.24"/><polygon class="cls-1" points="416.05 287.69 276.58 410.99 276.58 407.53 416.05 284.24 416.05 287.69"/><polygon class="cls-1" points="416.05 291.14 276.58 414.44 276.58 410.99 416.05 287.69 416.05 291.14"/><polygon class="cls-1" points="416.05 294.6 276.58 417.89 276.58 414.44 416.05 291.14 416.05 294.6"/><polygon class="cls-1" points="416.05 298.05 276.58 421.34 276.58 417.89 416.05 294.6 416.05 298.05"/><polygon class="cls-1" points="416.05 301.5 276.58 424.79 276.58 421.34 416.05 298.05 416.05 301.5"/><polygon class="cls-1" points="416.05 304.95 276.58 428.25 276.58 424.79 416.05 301.5 416.05 304.95"/><polygon class="cls-1" points="416.05 308.4 276.58 431.7 276.58 428.25 416.05 304.95 416.05 308.4"/><polygon class="cls-1" points="416.05 311.86 276.58 435.15 276.58 431.7 416.05 308.4 416.05 311.86"/><polygon class="cls-1" points="416.05 315.31 276.58 438.6 276.58 435.15 416.05 311.86 416.05 315.31"/><polygon class="cls-1" points="416.05 318.76 276.58 442.05 276.58 438.6 416.05 315.31 416.05 318.76"/><polygon class="cls-1" points="416.05 322.21 276.58 445.5 276.58 442.05 416.05 318.76 416.05 322.21"/><polygon class="cls-1" points="416.05 325.66 276.58 448.96 276.58 445.5 416.05 322.21 416.05 325.66"/><polygon class="cls-1" points="416.05 329.12 276.58 452.41 276.58 448.96 416.05 325.66 416.05 329.12"/><polygon class="cls-1" points="416.05 332.57 276.58 455.86 276.58 452.41 416.05 329.12 416.05 332.57"/><polygon class="cls-1" points="416.05 336.02 276.58 459.31 276.58 455.86 416.05 332.57 416.05 336.02"/><polygon class="cls-1" points="416.05 339.47 276.58 462.76 276.58 459.31 416.05 336.02 416.05 339.47"/><polygon class="cls-1" points="416.05 342.92 276.58 466.21 276.58 462.76 416.05 339.47 416.05 342.92"/><polygon class="cls-1" points="416.05 346.37 276.58 469.67 276.58 466.21 416.05 342.92 416.05 346.37"/><polygon class="cls-1" points="416.05 349.83 278.33 471.57 276.58 471.57 276.58 469.67 416.05 346.37 416.05 349.83"/><polygon class="cls-1" points="416.05 353.28 282.24 471.57 278.33 471.57 416.05 349.83 416.05 353.28"/><polygon class="cls-1" points="416.05 356.73 286.14 471.57 282.24 471.57 416.05 353.28 416.05 356.73"/><polygon class="cls-1" points="416.05 360.18 290.05 471.57 286.14 471.57 416.05 356.73 416.05 360.18"/><polygon class="cls-1" points="416.05 363.63 293.95 471.57 290.05 471.57 416.05 360.18 416.05 363.63"/><polygon class="cls-1" points="416.05 367.09 297.86 471.57 293.95 471.57 416.05 363.63 416.05 367.09"/><polygon class="cls-1" points="416.05 370.54 301.76 471.57 297.86 471.57 416.05 367.09 416.05 370.54"/><polygon class="cls-1" points="416.05 373.99 305.67 471.57 301.76 471.57 416.05 370.54 416.05 373.99"/><polygon class="cls-1" points="416.05 377.44 309.57 471.57 305.67 471.57 416.05 373.99 416.05 377.44"/><polygon class="cls-1" points="416.05 380.89 313.48 471.57 309.57 471.57 416.05 377.44 416.05 380.89"/><polygon class="cls-1" points="416.05 384.35 317.38 471.57 313.48 471.57 416.05 380.89 416.05 384.35"/><polygon class="cls-1" points="416.05 387.8 321.29 471.57 317.38 471.57 416.05 384.35 416.05 387.8"/><polygon class="cls-1" points="416.05 391.25 325.19 471.57 321.29 471.57 416.05 387.8 416.05 391.25"/><polygon class="cls-1" points="416.05 394.7 329.09 471.57 325.19 471.57 416.05 391.25 416.05 394.7"/><polygon class="cls-1" points="416.05 398.15 333 471.57 329.09 471.57 416.05 394.7 416.05 398.15"/><polygon class="cls-1" points="416.05 401.6 336.9 471.57 333 471.57 416.05 398.15 416.05 401.6"/><polygon class="cls-1" points="416.05 405.06 340.81 471.57 336.9 471.57 416.05 401.6 416.05 405.06"/><polygon class="cls-1" points="416.05 408.51 344.71 471.57 340.81 471.57 416.05 405.06 416.05 408.51"/><polygon class="cls-1" points="416.05 411.96 348.62 471.57 344.71 471.57 416.05 408.51 416.05 411.96"/><polygon class="cls-1" points="416.05 415.41 352.52 471.57 348.62 471.57 416.05 411.96 416.05 415.41"/><polygon class="cls-1" points="416.05 418.86 356.43 471.57 352.52 471.57 416.05 415.41 416.05 418.86"/><polygon class="cls-1" points="416.05 422.32 360.33 471.57 356.43 471.57 416.05 418.86 416.05 422.32"/><polygon class="cls-1" points="416.05 425.77 364.24 471.57 360.33 471.57 416.05 422.32 416.05 425.77"/><polygon class="cls-1" points="416.05 429.22 368.14 471.57 364.24 471.57 416.05 425.77 416.05 429.22"/><polygon class="cls-1" points="416.05 432.67 372.05 471.57 368.14 471.57 416.05 429.22 416.05 432.67"/><polygon class="cls-1" points="416.05 436.12 375.95 471.57 372.05 471.57 416.05 432.67 416.05 436.12"/><polygon class="cls-1" points="416.05 439.57 379.85 471.57 375.95 471.57 416.05 436.12 416.05 439.57"/><polygon class="cls-1" points="416.05 443.03 383.76 471.57 379.85 471.57 416.05 439.57 416.05 443.03"/><polygon class="cls-1" points="416.05 446.48 387.66 471.57 383.76 471.57 416.05 443.03 416.05 446.48"/><polygon class="cls-1" points="416.05 449.93 391.57 471.57 387.66 471.57 416.05 446.48 416.05 449.93"/><polygon class="cls-1" points="416.05 453.38 395.47 471.57 391.57 471.57 416.05 449.93 416.05 453.38"/><polygon class="cls-1" points="416.05 456.83 399.38 471.57 395.47 471.57 416.05 453.38 416.05 456.83"/><polygon class="cls-1" points="416.05 460.29 403.28 471.57 399.38 471.57 416.05 456.83 416.05 460.29"/><polygon class="cls-1" points="416.05 463.74 407.19 471.57 403.28 471.57 416.05 460.29 416.05 463.74"/><polygon class="cls-1" points="416.05 467.19 411.09 471.57 407.19 471.57 416.05 463.74 416.05 467.19"/><polygon class="cls-1" points="416.05 470.64 415 471.57 411.09 471.57 416.05 467.19 416.05 470.64"/><polygon class="cls-1" points="415 471.57 416.05 470.64 416.05 471.57 415 471.57"/></g><path class="cls-1" d="M455.29,820V140h44.34V820Z"/><g class="cls-3"><polygon class="cls-1" points="458.16 140 455.29 142.53 455.29 140 458.16 140"/><polygon class="cls-1" points="462.06 140 455.29 145.99 455.29 142.53 458.16 140 462.06 140"/><polygon class="cls-1" points="465.97 140 455.29 149.44 455.29 145.99 462.06 140 465.97 140"/><polygon class="cls-1" points="469.87 140 455.29 152.89 455.29 149.44 465.97 140 469.87 140"/><polygon class="cls-1" points="473.78 140 455.29 156.34 455.29 152.89 469.87 140 473.78 140"/><polygon class="cls-1" points="477.68 140 455.29 159.79 455.29 156.34 473.78 140 477.68 140"/><polygon class="cls-1" points="481.59 140 455.29 163.25 455.29 159.79 477.68 140 481.59 140"/><polygon class="cls-1" points="485.49 140 455.29 166.7 455.29 163.25 481.59 140 485.49 140"/><polygon class="cls-1" points="489.4 140 455.29 170.15 455.29 166.7 485.49 140 489.4 140"/><polygon class="cls-1" points="493.3 140 455.29 173.6 455.29 170.15 489.4 140 493.3 140"/><polygon class="cls-1" points="497.21 140 455.29 177.05 455.29 173.6 493.3 140 497.21 140"/><polygon class="cls-1" points="499.63 141.31 455.29 180.5 455.29 177.05 497.21 140 499.63 140 499.63 141.31"/><polygon class="cls-1" points="499.63 144.76 455.29 183.96 455.29 180.5 499.63 141.31 499.63 144.76"/><polygon class="cls-1" points="499.63 148.22 455.29 187.41 455.29 183.96 499.63 144.76 499.63 148.22"/><polygon class="cls-1" points="499.63 151.67 455.29 190.86 455.29 187.41 499.63 148.22 499.63 151.67"/><polygon class="cls-1" points="499.63 155.12 455.29 194.31 455.29 190.86 499.63 151.67 499.63 155.12"/><polygon class="cls-1" points="499.63 158.57 455.29 197.76 455.29 194.31 499.63 155.12 499.63 158.57"/><polygon class="cls-1" points="499.63 162.02 455.29 201.22 455.29 197.76 499.63 158.57 499.63 162.02"/><polygon class="cls-1" points="499.63 165.48 455.29 204.67 455.29 201.22 499.63 162.02 499.63 165.48"/><polygon class="cls-1" points="499.63 168.93 455.29 208.12 455.29 204.67 499.63 165.48 499.63 168.93"/><polygon class="cls-1" points="499.63 172.38 455.29 211.57 455.29 208.12 499.63 168.93 499.63 172.38"/><polygon class="cls-1" points="499.63 175.83 455.29 215.02 455.29 211.57 499.63 172.38 499.63 175.83"/><polygon class="cls-1" points="499.63 179.28 455.29 218.48 455.29 215.02 499.63 175.83 499.63 179.28"/><polygon class="cls-1" points="499.63 182.74 455.29 221.93 455.29 218.48 499.63 179.28 499.63 182.74"/><polygon class="cls-1" points="499.63 186.19 455.29 225.38 455.29 221.93 499.63 182.74 499.63 186.19"/><polygon class="cls-1" points="499.63 189.64 455.29 228.83 455.29 225.38 499.63 186.19 499.63 189.64"/><polygon class="cls-1" points="499.63 193.09 455.29 232.28 455.29 228.83 499.63 189.64 499.63 193.09"/><polygon class="cls-1" points="499.63 196.54 455.29 235.74 455.29 232.28 499.63 193.09 499.63 196.54"/><polygon class="cls-1" points="499.63 200 455.29 239.19 455.29 235.74 499.63 196.54 499.63 200"/><polygon class="cls-1" points="499.63 203.45 455.29 242.64 455.29 239.19 499.63 200 499.63 203.45"/><polygon class="cls-1" points="499.63 206.9 455.29 246.09 455.29 242.64 499.63 203.45 499.63 206.9"/><polygon class="cls-1" points="499.63 210.35 455.29 249.54 455.29 246.09 499.63 206.9 499.63 210.35"/><polygon class="cls-1" points="499.63 213.8 455.29 253 455.29 249.54 499.63 210.35 499.63 213.8"/><polygon class="cls-1" points="499.63 217.25 455.29 256.45 455.29 253 499.63 213.8 499.63 217.25"/><polygon class="cls-1" points="499.63 220.71 455.29 259.9 455.29 256.45 499.63 217.25 499.63 220.71"/><polygon class="cls-1" points="499.63 224.16 455.29 263.35 455.29 259.9 499.63 220.71 499.63 224.16"/><polygon class="cls-1" points="499.63 227.61 455.29 266.8 455.29 263.35 499.63 224.16 499.63 227.61"/><polygon class="cls-1" points="499.63 231.06 455.29 270.25 455.29 266.8 499.63 227.61 499.63 231.06"/><polygon class="cls-1" points="499.63 234.51 455.29 273.71 455.29 270.25 499.63 231.06 499.63 234.51"/><polygon class="cls-1" points="499.63 237.97 455.29 277.16 455.29 273.71 499.63 234.51 499.63 237.97"/><polygon class="cls-1" points="499.63 241.42 455.29 280.61 455.29 277.16 499.63 237.97 499.63 241.42"/><polygon class="cls-1" points="499.63 244.87 455.29 284.06 455.29 280.61 499.63 241.42 499.63 244.87"/><polygon class="cls-1" points="499.63 248.32 455.29 287.51 455.29 284.06 499.63 244.87 499.63 248.32"/><polygon class="cls-1" points="499.63 251.77 455.29 290.96 455.29 287.51 499.63 248.32 499.63 251.77"/><polygon class="cls-1" points="499.63 255.22 455.29 294.42 455.29 290.96 499.63 251.77 499.63 255.22"/><polygon class="cls-1" points="499.63 258.68 455.29 297.87 455.29 294.42 499.63 255.22 499.63 258.68"/><polygon class="cls-1" points="499.63 262.13 455.29 301.32 455.29 297.87 499.63 258.68 499.63 262.13"/><polygon class="cls-1" points="499.63 265.58 455.29 304.77 455.29 301.32 499.63 262.13 499.63 265.58"/><polygon class="cls-1" points="499.63 269.03 455.29 308.23 455.29 304.77 499.63 265.58 499.63 269.03"/><polygon class="cls-1" points="499.63 272.48 455.29 311.68 455.29 308.23 499.63 269.03 499.63 272.48"/><polygon class="cls-1" points="499.63 275.94 455.29 315.13 455.29 311.68 499.63 272.48 499.63 275.94"/><polygon class="cls-1" points="499.63 279.39 455.29 318.58 455.29 315.13 499.63 275.94 499.63 279.39"/><polygon class="cls-1" points="499.63 282.84 455.29 322.03 455.29 318.58 499.63 279.39 499.63 282.84"/><polygon class="cls-1" points="499.63 286.29 455.29 325.48 455.29 322.03 499.63 282.84 499.63 286.29"/><polygon class="cls-1" points="499.63 289.74 455.29 328.94 455.29 325.48 499.63 286.29 499.63 289.74"/><polygon class="cls-1" points="499.63 293.2 455.29 332.39 455.29 328.94 499.63 289.74 499.63 293.2"/><polygon class="cls-1" points="499.63 296.65 455.29 335.84 455.29 332.39 499.63 293.2 499.63 296.65"/><polygon class="cls-1" points="499.63 300.1 455.29 339.29 455.29 335.84 499.63 296.65 499.63 300.1"/><polygon class="cls-1" points="499.63 303.55 455.29 342.74 455.29 339.29 499.63 300.1 499.63 303.55"/><polygon class="cls-1" points="499.63 307 455.29 346.2 455.29 342.74 499.63 303.55 499.63 307"/><polygon class="cls-1" points="499.63 310.45 455.29 349.65 455.29 346.2 499.63 307 499.63 310.45"/><polygon class="cls-1" points="499.63 313.91 455.29 353.1 455.29 349.65 499.63 310.45 499.63 313.91"/><polygon class="cls-1" points="499.63 317.36 455.29 356.55 455.29 353.1 499.63 313.91 499.63 317.36"/><polygon class="cls-1" points="499.63 320.81 455.29 360 455.29 356.55 499.63 317.36 499.63 320.81"/><polygon class="cls-1" points="499.63 324.26 455.29 363.45 455.29 360 499.63 320.81 499.63 324.26"/><polygon class="cls-1" points="499.63 327.71 455.29 366.91 455.29 363.45 499.63 324.26 499.63 327.71"/><polygon class="cls-1" points="499.63 331.17 455.29 370.36 455.29 366.91 499.63 327.71 499.63 331.17"/><polygon class="cls-1" points="499.63 334.62 455.29 373.81 455.29 370.36 499.63 331.17 499.63 334.62"/><polygon class="cls-1" points="499.63 338.07 455.29 377.26 455.29 373.81 499.63 334.62 499.63 338.07"/><polygon class="cls-1" points="499.63 341.52 455.29 380.71 455.29 377.26 499.63 338.07 499.63 341.52"/><polygon class="cls-1" points="499.63 344.97 455.29 384.17 455.29 380.71 499.63 341.52 499.63 344.97"/><polygon class="cls-1" points="499.63 348.43 455.29 387.62 455.29 384.17 499.63 344.97 499.63 348.43"/><polygon class="cls-1" points="499.63 351.88 455.29 391.07 455.29 387.62 499.63 348.43 499.63 351.88"/><polygon class="cls-1" points="499.63 355.33 455.29 394.52 455.29 391.07 499.63 351.88 499.63 355.33"/><polygon class="cls-1" points="499.63 358.78 455.29 397.97 455.29 394.52 499.63 355.33 499.63 358.78"/><polygon class="cls-1" points="499.63 362.23 455.29 401.43 455.29 397.97 499.63 358.78 499.63 362.23"/><polygon class="cls-1" points="499.63 365.69 455.29 404.88 455.29 401.43 499.63 362.23 499.63 365.69"/><polygon class="cls-1" points="499.63 369.14 455.29 408.33 455.29 404.88 499.63 365.69 499.63 369.14"/><polygon class="cls-1" points="499.63 372.59 455.29 411.78 455.29 408.33 499.63 369.14 499.63 372.59"/><polygon class="cls-1" points="499.63 376.04 455.29 415.23 455.29 411.78 499.63 372.59 499.63 376.04"/><polygon class="cls-1" points="499.63 379.49 455.29 418.69 455.29 415.23 499.63 376.04 499.63 379.49"/><polygon class="cls-1" points="499.63 382.94 455.29 422.14 455.29 418.69 499.63 379.49 499.63 382.94"/><polygon class="cls-1" points="499.63 386.4 455.29 425.59 455.29 422.14 499.63 382.94 499.63 386.4"/><polygon class="cls-1" points="499.63 389.85 455.29 429.04 455.29 425.59 499.63 386.4 499.63 389.85"/><polygon class="cls-1" points="499.63 393.3 455.29 432.49 455.29 429.04 499.63 389.85 499.63 393.3"/><polygon class="cls-1" points="499.63 396.75 455.29 435.94 455.29 432.49 499.63 393.3 499.63 396.75"/><polygon class="cls-1" points="499.63 400.2 455.29 439.4 455.29 435.94 499.63 396.75 499.63 400.2"/><polygon class="cls-1" points="499.63 403.66 455.29 442.85 455.29 439.4 499.63 400.2 499.63 403.66"/><polygon class="cls-1" points="499.63 407.11 455.29 446.3 455.29 442.85 499.63 403.66 499.63 407.11"/><polygon class="cls-1" points="499.63 410.56 455.29 449.75 455.29 446.3 499.63 407.11 499.63 410.56"/><polygon class="cls-1" points="499.63 414.01 455.29 453.2 455.29 449.75 499.63 410.56 499.63 414.01"/><polygon class="cls-1" points="499.63 417.46 455.29 456.66 455.29 453.2 499.63 414.01 499.63 417.46"/><polygon class="cls-1" points="499.63 420.92 455.29 460.11 455.29 456.66 499.63 417.46 499.63 420.92"/><polygon class="cls-1" points="499.63 424.37 455.29 463.56 455.29 460.11 499.63 420.92 499.63 424.37"/><polygon class="cls-1" points="499.63 427.82 455.29 467.01 455.29 463.56 499.63 424.37 499.63 427.82"/><polygon class="cls-1" points="499.63 431.27 455.29 470.46 455.29 467.01 499.63 427.82 499.63 431.27"/><polygon class="cls-1" points="499.63 434.72 455.29 473.92 455.29 470.46 499.63 431.27 499.63 434.72"/><polygon class="cls-1" points="499.63 438.18 455.29 477.37 455.29 473.92 499.63 434.72 499.63 438.18"/><polygon class="cls-1" points="499.63 441.63 455.29 480.82 455.29 477.37 499.63 438.18 499.63 441.63"/><polygon class="cls-1" points="499.63 445.08 455.29 484.27 455.29 480.82 499.63 441.63 499.63 445.08"/><polygon class="cls-1" points="499.63 448.53 455.29 487.72 455.29 484.27 499.63 445.08 499.63 448.53"/><polygon class="cls-1" points="499.63 451.98 455.29 491.18 455.29 487.72 499.63 448.53 499.63 451.98"/><polygon class="cls-1" points="499.63 455.44 455.29 494.63 455.29 491.18 499.63 451.98 499.63 455.44"/><polygon class="cls-1" points="499.63 458.89 455.29 498.08 455.29 494.63 499.63 455.44 499.63 458.89"/><polygon class="cls-1" points="499.63 462.34 455.29 501.53 455.29 498.08 499.63 458.89 499.63 462.34"/><polygon class="cls-1" points="499.63 465.79 455.29 504.98 455.29 501.53 499.63 462.34 499.63 465.79"/><polygon class="cls-1" points="499.63 469.24 455.29 508.43 455.29 504.98 499.63 465.79 499.63 469.24"/><polygon class="cls-1" points="499.63 472.69 455.29 511.89 455.29 508.43 499.63 469.24 499.63 472.69"/><polygon class="cls-1" points="499.63 476.15 455.29 515.34 455.29 511.89 499.63 472.69 499.63 476.15"/><polygon class="cls-1" points="499.63 479.6 455.29 518.79 455.29 515.34 499.63 476.15 499.63 479.6"/><polygon class="cls-1" points="499.63 483.05 455.29 522.24 455.29 518.79 499.63 479.6 499.63 483.05"/><polygon class="cls-1" points="499.63 486.5 455.29 525.69 455.29 522.24 499.63 483.05 499.63 486.5"/><polygon class="cls-1" points="499.63 489.95 455.29 529.15 455.29 525.69 499.63 486.5 499.63 489.95"/><polygon class="cls-1" points="499.63 493.4 455.29 532.6 455.29 529.15 499.63 489.95 499.63 493.4"/><polygon class="cls-1" points="499.63 496.86 455.29 536.05 455.29 532.6 499.63 493.4 499.63 496.86"/><polygon class="cls-1" points="499.63 500.31 455.29 539.5 455.29 536.05 499.63 496.86 499.63 500.31"/><polygon class="cls-1" points="499.63 503.76 455.29 542.95 455.29 539.5 499.63 500.31 499.63 503.76"/><polygon class="cls-1" points="499.63 507.21 455.29 546.4 455.29 542.95 499.63 503.76 499.63 507.21"/><polygon class="cls-1" points="499.63 510.67 455.29 549.86 455.29 546.4 499.63 507.21 499.63 510.67"/><polygon class="cls-1" points="499.63 514.12 455.29 553.31 455.29 549.86 499.63 510.67 499.63 514.12"/><polygon class="cls-1" points="499.63 517.57 455.29 556.76 455.29 553.31 499.63 514.12 499.63 517.57"/><polygon class="cls-1" points="499.63 521.02 455.29 560.21 455.29 556.76 499.63 517.57 499.63 521.02"/><polygon class="cls-1" points="499.63 524.47 455.29 563.66 455.29 560.21 499.63 521.02 499.63 524.47"/><polygon class="cls-1" points="499.63 527.92 455.29 567.12 455.29 563.66 499.63 524.47 499.63 527.92"/><polygon class="cls-1" points="499.63 531.38 455.29 570.57 455.29 567.12 499.63 527.92 499.63 531.38"/><polygon class="cls-1" points="499.63 534.83 455.29 574.02 455.29 570.57 499.63 531.38 499.63 534.83"/><polygon class="cls-1" points="499.63 538.28 455.29 577.47 455.29 574.02 499.63 534.83 499.63 538.28"/><polygon class="cls-1" points="499.63 541.73 455.29 580.92 455.29 577.47 499.63 538.28 499.63 541.73"/><polygon class="cls-1" points="499.63 545.18 455.29 584.38 455.29 580.92 499.63 541.73 499.63 545.18"/><polygon class="cls-1" points="499.63 548.64 455.29 587.83 455.29 584.38 499.63 545.18 499.63 548.64"/><polygon class="cls-1" points="499.63 552.09 455.29 591.28 455.29 587.83 499.63 548.64 499.63 552.09"/><polygon class="cls-1" points="499.63 555.54 455.29 594.73 455.29 591.28 499.63 552.09 499.63 555.54"/><polygon class="cls-1" points="499.63 558.99 455.29 598.18 455.29 594.73 499.63 555.54 499.63 558.99"/><polygon class="cls-1" points="499.63 562.44 455.29 601.63 455.29 598.18 499.63 558.99 499.63 562.44"/><polygon class="cls-1" points="499.63 565.89 455.29 605.09 455.29 601.63 499.63 562.44 499.63 565.89"/><polygon class="cls-1" points="499.63 569.35 455.29 608.54 455.29 605.09 499.63 565.89 499.63 569.35"/><polygon class="cls-1" points="499.63 572.8 455.29 611.99 455.29 608.54 499.63 569.35 499.63 572.8"/><polygon class="cls-1" points="499.63 576.25 455.29 615.44 455.29 611.99 499.63 572.8 499.63 576.25"/><polygon class="cls-1" points="499.63 579.7 455.29 618.89 455.29 615.44 499.63 576.25 499.63 579.7"/><polygon class="cls-1" points="499.63 583.15 455.29 622.35 455.29 618.89 499.63 579.7 499.63 583.15"/><polygon class="cls-1" points="499.63 586.61 455.29 625.8 455.29 622.35 499.63 583.15 499.63 586.61"/><polygon class="cls-1" points="499.63 590.06 455.29 629.25 455.29 625.8 499.63 586.61 499.63 590.06"/><polygon class="cls-1" points="499.63 593.51 455.29 632.7 455.29 629.25 499.63 590.06 499.63 593.51"/><polygon class="cls-1" points="499.63 596.96 455.29 636.15 455.29 632.7 499.63 593.51 499.63 596.96"/><polygon class="cls-1" points="499.63 600.41 455.29 639.61 455.29 636.15 499.63 596.96 499.63 600.41"/><polygon class="cls-1" points="499.63 603.87 455.29 643.06 455.29 639.61 499.63 600.41 499.63 603.87"/><polygon class="cls-1" points="499.63 607.32 455.29 646.51 455.29 643.06 499.63 603.87 499.63 607.32"/><polygon class="cls-1" points="499.63 610.77 455.29 649.96 455.29 646.51 499.63 607.32 499.63 610.77"/><polygon class="cls-1" points="499.63 614.22 455.29 653.41 455.29 649.96 499.63 610.77 499.63 614.22"/><polygon class="cls-1" points="499.63 617.67 455.29 656.87 455.29 653.41 499.63 614.22 499.63 617.67"/><polygon class="cls-1" points="499.63 621.13 455.29 660.32 455.29 656.87 499.63 617.67 499.63 621.13"/><polygon class="cls-1" points="499.63 624.58 455.29 663.77 455.29 660.32 499.63 621.13 499.63 624.58"/><polygon class="cls-1" points="499.63 628.03 455.29 667.22 455.29 663.77 499.63 624.58 499.63 628.03"/><polygon class="cls-1" points="499.63 631.48 455.29 670.67 455.29 667.22 499.63 628.03 499.63 631.48"/><polygon class="cls-1" points="499.63 634.93 455.29 674.13 455.29 670.67 499.63 631.48 499.63 634.93"/><polygon class="cls-1" points="499.63 638.38 455.29 677.58 455.29 674.13 499.63 634.93 499.63 638.38"/><polygon class="cls-1" points="499.63 641.84 455.29 681.03 455.29 677.58 499.63 638.38 499.63 641.84"/><polygon class="cls-1" points="499.63 645.29 455.29 684.48 455.29 681.03 499.63 641.84 499.63 645.29"/><polygon class="cls-1" points="499.63 648.74 455.29 687.93 455.29 684.48 499.63 645.29 499.63 648.74"/><polygon class="cls-1" points="499.63 652.19 455.29 691.38 455.29 687.93 499.63 648.74 499.63 652.19"/><polygon class="cls-1" points="499.63 655.64 455.29 694.84 455.29 691.38 499.63 652.19 499.63 655.64"/><polygon class="cls-1" points="499.63 659.1 455.29 698.29 455.29 694.84 499.63 655.64 499.63 659.1"/><polygon class="cls-1" points="499.63 662.55 455.29 701.74 455.29 698.29 499.63 659.1 499.63 662.55"/><polygon class="cls-1" points="499.63 666 455.29 705.19 455.29 701.74 499.63 662.55 499.63 666"/><polygon class="cls-1" points="499.63 669.45 455.29 708.64 455.29 705.19 499.63 666 499.63 669.45"/><polygon class="cls-1" points="499.63 672.9 455.29 712.1 455.29 708.64 499.63 669.45 499.63 672.9"/><polygon class="cls-1" points="499.63 676.36 455.29 715.55 455.29 712.1 499.63 672.9 499.63 676.36"/><polygon class="cls-1" points="499.63 679.81 455.29 719 455.29 715.55 499.63 676.36 499.63 679.81"/><polygon class="cls-1" points="499.63 683.26 455.29 722.45 455.29 719 499.63 679.81 499.63 683.26"/><polygon class="cls-1" points="499.63 686.71 455.29 725.9 455.29 722.45 499.63 683.26 499.63 686.71"/><polygon class="cls-1" points="499.63 690.16 455.29 729.36 455.29 725.9 499.63 686.71 499.63 690.16"/><polygon class="cls-1" points="499.63 693.62 455.29 732.81 455.29 729.36 499.63 690.16 499.63 693.62"/><polygon class="cls-1" points="499.63 697.07 455.29 736.26 455.29 732.81 499.63 693.62 499.63 697.07"/><polygon class="cls-1" points="499.63 700.52 455.29 739.71 455.29 736.26 499.63 697.07 499.63 700.52"/><polygon class="cls-1" points="499.63 703.97 455.29 743.16 455.29 739.71 499.63 700.52 499.63 703.97"/><polygon class="cls-1" points="499.63 707.42 455.29 746.62 455.29 743.16 499.63 703.97 499.63 707.42"/><polygon class="cls-1" points="499.63 710.87 455.29 750.07 455.29 746.62 499.63 707.42 499.63 710.87"/><polygon class="cls-1" points="499.63 714.33 455.29 753.52 455.29 750.07 499.63 710.87 499.63 714.33"/><polygon class="cls-1" points="499.63 717.78 455.29 756.97 455.29 753.52 499.63 714.33 499.63 717.78"/><polygon class="cls-1" points="499.63 721.23 455.29 760.42 455.29 756.97 499.63 717.78 499.63 721.23"/><polygon class="cls-1" points="499.63 724.68 455.29 763.87 455.29 760.42 499.63 721.23 499.63 724.68"/><polygon class="cls-1" points="499.63 728.13 455.29 767.33 455.29 763.87 499.63 724.68 499.63 728.13"/><polygon class="cls-1" points="499.63 731.59 455.29 770.78 455.29 767.33 499.63 728.13 499.63 731.59"/><polygon class="cls-1" points="499.63 735.04 455.29 774.23 455.29 770.78 499.63 731.59 499.63 735.04"/><polygon class="cls-1" points="499.63 738.49 455.29 777.68 455.29 774.23 499.63 735.04 499.63 738.49"/><polygon class="cls-1" points="499.63 741.94 455.29 781.13 455.29 777.68 499.63 738.49 499.63 741.94"/><polygon class="cls-1" points="499.63 745.39 455.29 784.59 455.29 781.13 499.63 741.94 499.63 745.39"/><polygon class="cls-1" points="499.63 748.85 455.29 788.04 455.29 784.59 499.63 745.39 499.63 748.85"/><polygon class="cls-1" points="499.63 752.3 455.29 791.49 455.29 788.04 499.63 748.85 499.63 752.3"/><polygon class="cls-1" points="499.63 755.75 455.29 794.94 455.29 791.49 499.63 752.3 499.63 755.75"/><polygon class="cls-1" points="499.63 759.2 455.29 798.39 455.29 794.94 499.63 755.75 499.63 759.2"/><polygon class="cls-1" points="499.63 762.65 455.29 801.85 455.29 798.39 499.63 759.2 499.63 762.65"/><polygon class="cls-1" points="499.63 766.11 455.29 805.3 455.29 801.85 499.63 762.65 499.63 766.11"/><polygon class="cls-1" points="499.63 769.56 455.29 808.75 455.29 805.3 499.63 766.11 499.63 769.56"/><polygon class="cls-1" points="499.63 773.01 455.29 812.2 455.29 808.75 499.63 769.56 499.63 773.01"/><polygon class="cls-1" points="499.63 776.46 455.29 815.65 455.29 812.2 499.63 773.01 499.63 776.46"/><polygon class="cls-1" points="499.63 779.91 455.29 819.1 455.29 815.65 499.63 776.46 499.63 779.91"/><polygon class="cls-1" points="499.63 783.36 458.19 820 455.29 820 455.29 819.1 499.63 779.91 499.63 783.36"/><polygon class="cls-1" points="499.63 786.82 462.09 820 458.19 820 499.63 783.36 499.63 786.82"/><polygon class="cls-1" points="499.63 790.27 466 820 462.09 820 499.63 786.82 499.63 790.27"/><polygon class="cls-1" points="499.63 793.72 469.9 820 466 820 499.63 790.27 499.63 793.72"/><polygon class="cls-1" points="499.63 797.17 473.8 820 469.9 820 499.63 793.72 499.63 797.17"/><polygon class="cls-1" points="499.63 800.62 477.71 820 473.8 820 499.63 797.17 499.63 800.62"/><polygon class="cls-1" points="499.63 804.08 481.61 820 477.71 820 499.63 800.62 499.63 804.08"/><polygon class="cls-1" points="499.63 807.53 485.52 820 481.61 820 499.63 804.08 499.63 807.53"/><polygon class="cls-1" points="499.63 810.98 489.42 820 485.52 820 499.63 807.53 499.63 810.98"/><polygon class="cls-1" points="499.63 814.43 493.33 820 489.42 820 499.63 810.98 499.63 814.43"/><polygon class="cls-1" points="499.63 817.88 497.23 820 493.33 820 499.63 814.43 499.63 817.88"/><polygon class="cls-1" points="497.23 820 499.63 817.88 499.63 820 497.23 820"/></g><path class="cls-1" d="M541.18,140H628q50.79,0,50.8,56.8v81.74q0,43.41-26.32,54.95l30.94,138.08h-42L612.3,337.65H585.52V471.57H541.18Zm44.34,159.78h29.09q19.85,0,19.86-24V204.19q0-24-19.86-24H585.52Z"/><g class="cls-4"><polygon class="cls-1" points="588.42 180.18 585.51 182.75 585.51 180.18 588.42 180.18"/><polygon class="cls-1" points="592.33 180.18 585.51 186.2 585.51 182.75 588.42 180.18 592.33 180.18"/><polygon class="cls-1" points="596.23 180.18 585.51 189.65 585.51 186.2 592.33 180.18 596.23 180.18"/><polygon class="cls-1" points="600.14 180.18 585.51 193.1 585.51 189.65 596.23 180.18 600.14 180.18"/><polygon class="cls-1" points="604.04 180.18 585.51 196.55 585.51 193.1 600.14 180.18 604.04 180.18"/><polygon class="cls-1" points="607.95 180.18 585.51 200 585.51 196.55 604.04 180.18 607.95 180.18"/><polygon class="cls-1" points="611.85 180.18 585.51 203.46 585.51 200 607.95 180.18 611.85 180.18"/><polygon class="cls-1" points="615.75 180.18 585.51 206.91 585.51 203.46 611.85 180.18 615.75 180.18"/><polygon class="cls-1" points="619.66 180.18 585.51 210.36 585.51 206.91 615.75 180.18 619.66 180.18"/><polygon class="cls-1" points="623.56 180.18 585.51 213.81 585.51 210.36 619.66 180.18 623.56 180.18"/><polygon class="cls-1" points="627.47 180.18 585.51 217.26 585.51 213.81 623.56 180.18 627.47 180.18"/><polygon class="cls-1" points="630.51 180.18 630.89 180.6 585.51 220.72 585.51 217.26 627.47 180.18 630.51 180.18"/><polygon class="cls-1" points="630.89 180.6 632.6 182.54 585.51 224.17 585.51 220.72 630.89 180.6"/><polygon class="cls-1" points="632.6 182.54 634.32 184.48 585.51 227.62 585.51 224.17 632.6 182.54"/><polygon class="cls-1" points="634.32 184.48 634.47 184.65 634.47 187.8 585.51 231.07 585.51 227.62 634.32 184.48"/><polygon class="cls-1" points="634.47 191.25 585.51 234.52 585.51 231.07 634.47 187.8 634.47 191.25"/><polygon class="cls-1" points="634.47 194.7 585.51 237.98 585.51 234.52 634.47 191.25 634.47 194.7"/><polygon class="cls-1" points="634.47 198.15 585.51 241.43 585.51 237.98 634.47 194.7 634.47 198.15"/><polygon class="cls-1" points="634.47 201.6 585.51 244.88 585.51 241.43 634.47 198.15 634.47 201.6"/><polygon class="cls-1" points="634.47 205.06 585.51 248.33 585.51 244.88 634.47 201.6 634.47 205.06"/><polygon class="cls-1" points="634.47 208.51 585.51 251.78 585.51 248.33 634.47 205.06 634.47 208.51"/><polygon class="cls-1" points="634.47 211.96 585.51 255.24 585.51 251.78 634.47 208.51 634.47 211.96"/><polygon class="cls-1" points="634.47 215.41 585.51 258.69 585.51 255.24 634.47 211.96 634.47 215.41"/><polygon class="cls-1" points="634.47 218.86 585.51 262.14 585.51 258.69 634.47 215.41 634.47 218.86"/><polygon class="cls-1" points="634.47 222.32 585.51 265.59 585.51 262.14 634.47 218.86 634.47 222.32"/><polygon class="cls-1" points="634.47 225.77 585.51 269.04 585.51 265.59 634.47 222.32 634.47 225.77"/><polygon class="cls-1" points="634.47 229.22 585.51 272.5 585.51 269.04 634.47 225.77 634.47 229.22"/><polygon class="cls-1" points="634.47 232.67 585.51 275.95 585.51 272.5 634.47 229.22 634.47 232.67"/><polygon class="cls-1" points="634.47 236.12 585.51 279.4 585.51 275.95 634.47 232.67 634.47 236.12"/><polygon class="cls-1" points="634.47 239.57 585.51 282.85 585.51 279.4 634.47 236.12 634.47 239.57"/><polygon class="cls-1" points="634.47 243.03 585.51 286.3 585.51 282.85 634.47 239.57 634.47 243.03"/><polygon class="cls-1" points="634.47 246.48 585.51 289.75 585.51 286.3 634.47 243.03 634.47 246.48"/><polygon class="cls-1" points="634.47 249.93 585.51 293.21 585.51 289.75 634.47 246.48 634.47 249.93"/><polygon class="cls-1" points="634.47 253.38 585.51 296.66 585.51 293.21 634.47 249.93 634.47 253.38"/><polygon class="cls-1" points="634.47 256.83 585.89 299.78 585.51 299.78 585.51 296.66 634.47 253.38 634.47 256.83"/><polygon class="cls-1" points="634.47 260.29 589.79 299.78 585.89 299.78 634.47 256.83 634.47 260.29"/><polygon class="cls-1" points="634.47 263.74 593.7 299.78 589.79 299.78 634.47 260.29 634.47 263.74"/><polygon class="cls-1" points="634.47 267.19 597.6 299.78 593.7 299.78 634.47 263.74 634.47 267.19"/><polygon class="cls-1" points="634.47 270.64 601.5 299.78 597.6 299.78 634.47 267.19 634.47 270.64"/><polygon class="cls-1" points="634.47 274.09 605.41 299.78 601.5 299.78 634.47 270.64 634.47 274.09"/><polygon class="cls-1" points="634.47 277.55 609.31 299.78 605.41 299.78 634.47 274.09 634.47 277.55"/><polygon class="cls-1" points="634.47 281 613.22 299.78 609.31 299.78 634.47 277.55 634.47 281"/><polygon class="cls-1" points="634.47 284.45 617.12 299.78 613.22 299.78 634.47 281 634.47 284.45"/><polygon class="cls-1" points="634.47 287.9 621.03 299.78 617.12 299.78 634.47 284.45 634.47 287.9"/><polygon class="cls-1" points="634.47 291.35 624.93 299.78 621.03 299.78 634.47 287.9 634.47 291.35"/><polygon class="cls-1" points="634.47 294.81 628.84 299.78 624.93 299.78 634.47 291.35 634.47 294.81"/><polygon class="cls-1" points="634.47 298.26 632.74 299.78 628.84 299.78 634.47 294.81 634.47 298.26"/><polygon class="cls-1" points="632.74 299.78 634.47 298.26 634.47 299.78 632.74 299.78"/><polygon class="cls-1" points="544.06 140 541.18 142.54 541.18 140 544.06 140"/><polygon class="cls-1" points="547.97 140 541.18 146 541.18 142.54 544.06 140 547.97 140"/><polygon class="cls-1" points="551.87 140 541.18 149.45 541.18 146 547.97 140 551.87 140"/><polygon class="cls-1" points="555.77 140 541.18 152.9 541.18 149.45 551.87 140 555.77 140"/><polygon class="cls-1" points="559.68 140 541.18 156.35 541.18 152.9 555.77 140 559.68 140"/><polygon class="cls-1" points="563.59 140 541.18 159.8 541.18 156.35 559.68 140 563.59 140"/><polygon class="cls-1" points="567.49 140 541.18 163.26 541.18 159.8 563.59 140 567.49 140"/><polygon class="cls-1" points="571.39 140 541.18 166.71 541.18 163.26 567.49 140 571.39 140"/><polygon class="cls-1" points="575.3 140 541.18 170.16 541.18 166.71 571.39 140 575.3 140"/><polygon class="cls-1" points="579.2 140 541.18 173.61 541.18 170.16 575.3 140 579.2 140"/><polygon class="cls-1" points="583.11 140 541.18 177.06 541.18 173.61 579.2 140 583.11 140"/><polygon class="cls-1" points="587.01 140 541.18 180.51 541.18 177.06 583.11 140 587.01 140"/><polygon class="cls-1" points="590.92 140 541.18 183.97 541.18 180.51 587.01 140 590.92 140"/><polygon class="cls-1" points="594.82 140 541.18 187.42 541.18 183.97 590.92 140 594.82 140"/><polygon class="cls-1" points="598.73 140 541.18 190.87 541.18 187.42 594.82 140 598.73 140"/><polygon class="cls-1" points="602.63 140 541.18 194.32 541.18 190.87 598.73 140 602.63 140"/><polygon class="cls-1" points="606.53 140 541.18 197.78 541.18 194.32 602.63 140 606.53 140"/><polygon class="cls-1" points="610.44 140 541.18 201.23 541.18 197.78 606.53 140 610.44 140"/><polygon class="cls-1" points="614.34 140 541.18 204.68 541.18 201.23 610.44 140 614.34 140"/><polygon class="cls-1" points="618.25 140 541.18 208.13 541.18 204.68 614.34 140 618.25 140"/><polygon class="cls-1" points="622.15 140 541.18 211.58 541.18 208.13 618.25 140 622.15 140"/><polygon class="cls-1" points="626.06 140 541.18 215.03 541.18 211.58 622.15 140 626.06 140"/><polygon class="cls-1" points="629.96 140 541.18 218.49 541.18 215.03 626.06 140 629.96 140"/><polygon class="cls-1" points="633.87 140 541.18 221.94 541.18 218.49 629.96 140 633.87 140"/><polygon class="cls-1" points="637.77 140 541.18 225.39 541.18 221.94 633.87 140 637.77 140"/><polygon class="cls-1" points="641.68 140 541.18 228.84 541.18 225.39 637.77 140 641.68 140"/><polygon class="cls-1" points="645.58 140 541.18 232.29 541.18 228.84 641.68 140 645.58 140"/><polygon class="cls-1" points="649.49 140 541.18 235.75 541.18 232.29 645.58 140 649.49 140"/><polygon class="cls-1" points="653.39 140 541.18 239.2 541.18 235.75 649.49 140 653.39 140"/><polygon class="cls-1" points="657.29 140 541.18 242.65 541.18 239.2 653.39 140 657.29 140"/><polygon class="cls-1" points="661.2 140 541.18 246.1 541.18 242.65 657.29 140 661.2 140"/><polygon class="cls-1" points="664.73 140 664.89 140.19 541.18 249.55 541.18 246.1 661.2 140 664.73 140"/><polygon class="cls-1" points="664.89 140.19 666.61 142.12 541.18 253 541.18 249.55 664.89 140.19"/><polygon class="cls-1" points="666.61 142.12 668.32 144.06 541.18 256.46 541.18 253 666.61 142.12"/><polygon class="cls-1" points="668.32 144.06 670.03 146 541.18 259.91 541.18 256.46 668.32 144.06"/><polygon class="cls-1" points="670.03 146 671.75 147.94 541.18 263.36 541.18 259.91 670.03 146"/><polygon class="cls-1" points="671.75 147.94 673.46 149.87 541.18 266.81 541.18 263.36 671.75 147.94"/><polygon class="cls-1" points="673.46 149.87 675.17 151.81 541.18 270.26 541.18 266.81 673.46 149.87"/><polygon class="cls-1" points="675.17 151.81 676.88 153.75 541.18 273.72 541.18 270.26 675.17 151.81"/><polygon class="cls-1" points="676.88 153.75 678.6 155.69 541.18 277.17 541.18 273.72 676.88 153.75"/><polygon class="cls-1" points="678.6 155.69 680.31 157.62 541.18 280.62 541.18 277.17 678.6 155.69"/><polygon class="cls-1" points="680.31 157.62 682.02 159.56 541.18 284.07 541.18 280.62 680.31 157.62"/><polygon class="cls-1" points="682.02 159.56 683.42 161.14 683.42 161.78 541.18 287.52 541.18 284.07 682.02 159.56"/><polygon class="cls-1" points="683.42 165.23 541.18 290.98 541.18 287.52 683.42 161.78 683.42 165.23"/><polygon class="cls-1" points="683.42 168.69 541.18 294.43 541.18 290.98 683.42 165.23 683.42 168.69"/><polygon class="cls-1" points="683.42 172.14 541.18 297.88 541.18 294.43 683.42 168.69 683.42 172.14"/><polygon class="cls-1" points="683.42 175.59 541.18 301.33 541.18 297.88 683.42 172.14 683.42 175.59"/><polygon class="cls-1" points="683.42 179.04 541.18 304.78 541.18 301.33 683.42 175.59 683.42 179.04"/><polygon class="cls-1" points="683.42 182.49 541.18 308.24 541.18 304.78 683.42 179.04 683.42 182.49"/><polygon class="cls-1" points="683.42 185.94 541.18 311.69 541.18 308.24 683.42 182.49 683.42 185.94"/><polygon class="cls-1" points="683.42 189.4 541.18 315.14 541.18 311.69 683.42 185.94 683.42 189.4"/><polygon class="cls-1" points="683.42 192.85 541.18 318.59 541.18 315.14 683.42 189.4 683.42 192.85"/><polygon class="cls-1" points="683.42 196.3 541.18 322.04 541.18 318.59 683.42 192.85 683.42 196.3"/><polygon class="cls-1" points="683.42 199.75 541.18 325.5 541.18 322.04 683.42 196.3 683.42 199.75"/><polygon class="cls-1" points="683.42 203.2 541.18 328.95 541.18 325.5 683.42 199.75 683.42 203.2"/><polygon class="cls-1" points="683.42 206.66 541.18 332.4 541.18 328.95 683.42 203.2 683.42 206.66"/><polygon class="cls-1" points="683.42 210.11 541.18 335.85 541.18 332.4 683.42 206.66 683.42 210.11"/><polygon class="cls-1" points="683.42 213.56 541.18 339.3 541.18 335.85 683.42 210.11 683.42 213.56"/><polygon class="cls-1" points="683.42 217.01 541.18 342.75 541.18 339.3 683.42 213.56 683.42 217.01"/><polygon class="cls-1" points="683.42 220.46 541.18 346.21 541.18 342.75 683.42 217.01 683.42 220.46"/><polygon class="cls-1" points="683.42 223.91 541.18 349.66 541.18 346.21 683.42 220.46 683.42 223.91"/><polygon class="cls-1" points="683.42 227.37 541.18 353.11 541.18 349.66 683.42 223.91 683.42 227.37"/><polygon class="cls-1" points="683.42 230.82 541.18 356.56 541.18 353.11 683.42 227.37 683.42 230.82"/><polygon class="cls-1" points="683.42 234.27 541.18 360.01 541.18 356.56 683.42 230.82 683.42 234.27"/><polygon class="cls-1" points="683.42 237.72 541.18 363.47 541.18 360.01 683.42 234.27 683.42 237.72"/><polygon class="cls-1" points="683.42 241.18 541.18 366.92 541.18 363.47 683.42 237.72 683.42 241.18"/><polygon class="cls-1" points="683.42 244.63 541.18 370.37 541.18 366.92 683.42 241.18 683.42 244.63"/><polygon class="cls-1" points="683.42 248.08 541.18 373.82 541.18 370.37 683.42 244.63 683.42 248.08"/><polygon class="cls-1" points="683.42 251.53 541.18 377.27 541.18 373.82 683.42 248.08 683.42 251.53"/><polygon class="cls-1" points="683.42 254.98 541.18 380.73 541.18 377.27 683.42 251.53 683.42 254.98"/><polygon class="cls-1" points="683.42 258.43 541.18 384.18 541.18 380.73 683.42 254.98 683.42 258.43"/><polygon class="cls-1" points="683.42 261.89 541.18 387.63 541.18 384.18 683.42 258.43 683.42 261.89"/><polygon class="cls-1" points="683.42 265.34 541.18 391.08 541.18 387.63 683.42 261.89 683.42 265.34"/><polygon class="cls-1" points="683.42 268.79 541.18 394.53 541.18 391.08 683.42 265.34 683.42 268.79"/><polygon class="cls-1" points="683.42 272.24 541.18 397.98 541.18 394.53 683.42 268.79 683.42 272.24"/><polygon class="cls-1" points="683.42 275.69 541.18 401.44 541.18 397.98 683.42 272.24 683.42 275.69"/><polygon class="cls-1" points="683.42 279.15 541.18 404.89 541.18 401.44 683.42 275.69 683.42 279.15"/><polygon class="cls-1" points="683.42 282.6 541.18 408.34 541.18 404.89 683.42 279.15 683.42 282.6"/><polygon class="cls-1" points="683.42 286.05 541.18 411.79 541.18 408.34 683.42 282.6 683.42 286.05"/><polygon class="cls-1" points="683.42 289.5 541.18 415.24 541.18 411.79 683.42 286.05 683.42 289.5"/><polygon class="cls-1" points="683.42 292.95 541.18 418.7 541.18 415.24 683.42 289.5 683.42 292.95"/><polygon class="cls-1" points="683.42 296.4 541.18 422.15 541.18 418.7 683.42 292.95 683.42 296.4"/><polygon class="cls-1" points="683.42 299.86 541.18 425.6 541.18 422.15 683.42 296.4 683.42 299.86"/><polygon class="cls-1" points="683.42 303.31 541.18 429.05 541.18 425.6 683.42 299.86 683.42 303.31"/><polygon class="cls-1" points="683.42 306.76 541.18 432.5 541.18 429.05 683.42 303.31 683.42 306.76"/><polygon class="cls-1" points="683.42 310.21 541.18 435.95 541.18 432.5 683.42 306.76 683.42 310.21"/><polygon class="cls-1" points="683.42 313.66 541.18 439.41 541.18 435.95 683.42 310.21 683.42 313.66"/><polygon class="cls-1" points="683.42 317.12 541.18 442.86 541.18 439.41 683.42 313.66 683.42 317.12"/><polygon class="cls-1" points="683.42 320.57 541.18 446.31 541.18 442.86 683.42 317.12 683.42 320.57"/><polygon class="cls-1" points="683.42 324.02 541.18 449.76 541.18 446.31 683.42 320.57 683.42 324.02"/><polygon class="cls-1" points="683.42 327.47 541.18 453.21 541.18 449.76 683.42 324.02 683.42 327.47"/><polygon class="cls-1" points="683.42 330.92 541.18 456.67 541.18 453.21 683.42 327.47 683.42 330.92"/><polygon class="cls-1" points="683.42 334.38 541.18 460.12 541.18 456.67 683.42 330.92 683.42 334.38"/><polygon class="cls-1" points="683.42 337.83 541.18 463.57 541.18 460.12 683.42 334.38 683.42 337.83"/><polygon class="cls-1" points="683.42 341.28 541.18 467.02 541.18 463.57 683.42 337.83 683.42 341.28"/><polygon class="cls-1" points="683.42 344.73 541.18 470.47 541.18 467.02 683.42 341.28 683.42 344.73"/><polygon class="cls-1" points="683.42 348.18 543.85 471.57 541.18 471.57 541.18 470.47 683.42 344.73 683.42 348.18"/><polygon class="cls-1" points="683.42 351.63 547.75 471.57 543.85 471.57 683.42 348.18 683.42 351.63"/><polygon class="cls-1" points="683.42 355.09 551.66 471.57 547.75 471.57 683.42 351.63 683.42 355.09"/><polygon class="cls-1" points="683.42 358.54 555.56 471.57 551.66 471.57 683.42 355.09 683.42 358.54"/><polygon class="cls-1" points="683.42 361.99 559.47 471.57 555.56 471.57 683.42 358.54 683.42 361.99"/><polygon class="cls-1" points="683.42 365.44 563.37 471.57 559.47 471.57 683.42 361.99 683.42 365.44"/><polygon class="cls-1" points="683.42 368.89 567.27 471.57 563.37 471.57 683.42 365.44 683.42 368.89"/><polygon class="cls-1" points="683.42 372.35 571.18 471.57 567.27 471.57 683.42 368.89 683.42 372.35"/><polygon class="cls-1" points="683.42 375.8 575.08 471.57 571.18 471.57 683.42 372.35 683.42 375.8"/><polygon class="cls-1" points="683.42 379.25 578.99 471.57 575.08 471.57 683.42 375.8 683.42 379.25"/><polygon class="cls-1" points="683.42 382.7 582.89 471.57 578.99 471.57 683.42 379.25 683.42 382.7"/><polygon class="cls-1" points="683.42 386.15 586.8 471.57 582.89 471.57 683.42 382.7 683.42 386.15"/><polygon class="cls-1" points="683.42 389.61 590.7 471.57 586.8 471.57 683.42 386.15 683.42 389.61"/><polygon class="cls-1" points="683.42 393.06 594.61 471.57 590.7 471.57 683.42 389.61 683.42 393.06"/><polygon class="cls-1" points="683.42 396.51 598.51 471.57 594.61 471.57 683.42 393.06 683.42 396.51"/><polygon class="cls-1" points="683.42 399.96 602.42 471.57 598.51 471.57 683.42 396.51 683.42 399.96"/><polygon class="cls-1" points="683.42 403.41 606.32 471.57 602.42 471.57 683.42 399.96 683.42 403.41"/><polygon class="cls-1" points="683.42 406.87 610.23 471.57 606.32 471.57 683.42 403.41 683.42 406.87"/><polygon class="cls-1" points="683.42 410.32 614.13 471.57 610.23 471.57 683.42 406.87 683.42 410.32"/><polygon class="cls-1" points="683.42 413.77 618.03 471.57 614.13 471.57 683.42 410.32 683.42 413.77"/><polygon class="cls-1" points="683.42 417.22 621.94 471.57 618.03 471.57 683.42 413.77 683.42 417.22"/><polygon class="cls-1" points="683.42 420.67 625.84 471.57 621.94 471.57 683.42 417.22 683.42 420.67"/><polygon class="cls-1" points="683.42 424.13 629.75 471.57 625.84 471.57 683.42 420.67 683.42 424.13"/><polygon class="cls-1" points="683.42 427.58 633.65 471.57 629.75 471.57 683.42 424.13 683.42 427.58"/><polygon class="cls-1" points="683.42 431.03 637.56 471.57 633.65 471.57 683.42 427.58 683.42 431.03"/><polygon class="cls-1" points="683.42 434.48 641.46 471.57 637.56 471.57 683.42 431.03 683.42 434.48"/><polygon class="cls-1" points="683.42 437.93 645.37 471.57 641.46 471.57 683.42 434.48 683.42 437.93"/><polygon class="cls-1" points="683.42 441.38 649.27 471.57 645.37 471.57 683.42 437.93 683.42 441.38"/><polygon class="cls-1" points="683.42 444.84 653.18 471.57 649.27 471.57 683.42 441.38 683.42 444.84"/><polygon class="cls-1" points="683.42 448.29 657.08 471.57 653.18 471.57 683.42 444.84 683.42 448.29"/><polygon class="cls-1" points="683.42 451.74 660.99 471.57 657.08 471.57 683.42 448.29 683.42 451.74"/><polygon class="cls-1" points="683.42 455.19 664.89 471.57 660.99 471.57 683.42 451.74 683.42 455.19"/><polygon class="cls-1" points="683.42 458.64 668.79 471.57 664.89 471.57 683.42 455.19 683.42 458.64"/><polygon class="cls-1" points="683.42 462.1 672.7 471.57 668.79 471.57 683.42 458.64 683.42 462.1"/><polygon class="cls-1" points="683.42 465.55 676.6 471.57 672.7 471.57 683.42 462.1 683.42 465.55"/><polygon class="cls-1" points="683.42 469 680.51 471.57 676.6 471.57 683.42 465.55 683.42 469"/><polygon class="cls-1" points="680.51 471.57 683.42 469 683.42 471.57 680.51 471.57"/></g><path class="cls-1" d="M276.62,488.43h82.23q54.5,0,54.51,56.8v98.36q0,56.35-54,56.34H321.73V820H276.62Zm45.11,171.33h28.66q17.85,0,17.86-19.4V548q0-19.39-20.21-19.39H321.73Z"/><g class="cls-5"><polygon class="cls-1" points="323.15 528.61 321.73 529.86 321.73 528.61 323.15 528.61"/><polygon class="cls-1" points="327.05 528.61 321.73 533.31 321.73 529.86 323.15 528.61 327.05 528.61"/><polygon class="cls-1" points="330.96 528.61 321.73 536.76 321.73 533.31 327.05 528.61 330.96 528.61"/><polygon class="cls-1" points="334.86 528.61 321.73 540.22 321.73 536.76 330.96 528.61 334.86 528.61"/><polygon class="cls-1" points="338.77 528.61 321.73 543.67 321.73 540.22 334.86 528.61 338.77 528.61"/><polygon class="cls-1" points="342.67 528.61 321.73 547.12 321.73 543.67 338.77 528.61 342.67 528.61"/><polygon class="cls-1" points="346.57 528.61 321.73 550.57 321.73 547.12 342.67 528.61 346.57 528.61"/><polygon class="cls-1" points="350.48 528.61 321.73 554.02 321.73 550.57 346.57 528.61 350.48 528.61"/><polygon class="cls-1" points="354.38 528.61 321.73 557.48 321.73 554.02 350.48 528.61 354.38 528.61"/><polygon class="cls-1" points="358.29 528.61 321.73 560.93 321.73 557.48 354.38 528.61 358.29 528.61"/><polygon class="cls-1" points="362.19 528.61 321.73 564.38 321.73 560.93 358.29 528.61 362.19 528.61"/><polygon class="cls-1" points="365.2 528.61 365.6 529.05 321.73 567.83 321.73 564.38 362.19 528.61 365.2 528.61"/><polygon class="cls-1" points="365.6 529.05 367.31 530.99 321.73 571.28 321.73 567.83 365.6 529.05"/><polygon class="cls-1" points="367.31 530.99 368.25 532.05 368.25 533.61 321.73 574.74 321.73 571.28 367.31 530.99"/><polygon class="cls-1" points="368.25 537.06 321.73 578.19 321.73 574.74 368.25 533.61 368.25 537.06"/><polygon class="cls-1" points="368.25 540.51 321.73 581.64 321.73 578.19 368.25 537.06 368.25 540.51"/><polygon class="cls-1" points="368.25 543.97 321.73 585.09 321.73 581.64 368.25 540.51 368.25 543.97"/><polygon class="cls-1" points="368.25 547.42 321.73 588.54 321.73 585.09 368.25 543.97 368.25 547.42"/><polygon class="cls-1" points="368.25 550.87 321.73 592 321.73 588.54 368.25 547.42 368.25 550.87"/><polygon class="cls-1" points="368.25 554.32 321.73 595.45 321.73 592 368.25 550.87 368.25 554.32"/><polygon class="cls-1" points="368.25 557.77 321.73 598.9 321.73 595.45 368.25 554.32 368.25 557.77"/><polygon class="cls-1" points="368.25 561.23 321.73 602.35 321.73 598.9 368.25 557.77 368.25 561.23"/><polygon class="cls-1" points="368.25 564.68 321.73 605.8 321.73 602.35 368.25 561.23 368.25 564.68"/><polygon class="cls-1" points="368.25 568.13 321.73 609.25 321.73 605.8 368.25 564.68 368.25 568.13"/><polygon class="cls-1" points="368.25 571.58 321.73 612.71 321.73 609.25 368.25 568.13 368.25 571.58"/><polygon class="cls-1" points="368.25 575.03 321.73 616.16 321.73 612.71 368.25 571.58 368.25 575.03"/><polygon class="cls-1" points="368.25 578.49 321.73 619.61 321.73 616.16 368.25 575.03 368.25 578.49"/><polygon class="cls-1" points="368.25 581.94 321.73 623.06 321.73 619.61 368.25 578.49 368.25 581.94"/><polygon class="cls-1" points="368.25 585.39 321.73 626.51 321.73 623.06 368.25 581.94 368.25 585.39"/><polygon class="cls-1" points="368.25 588.84 321.73 629.97 321.73 626.51 368.25 585.39 368.25 588.84"/><polygon class="cls-1" points="368.25 592.29 321.73 633.42 321.73 629.97 368.25 588.84 368.25 592.29"/><polygon class="cls-1" points="368.25 595.75 321.73 636.87 321.73 633.42 368.25 592.29 368.25 595.75"/><polygon class="cls-1" points="368.25 599.2 321.73 640.32 321.73 636.87 368.25 595.75 368.25 599.2"/><polygon class="cls-1" points="368.25 602.65 321.73 643.77 321.73 640.32 368.25 599.2 368.25 602.65"/><polygon class="cls-1" points="368.25 606.1 321.73 647.23 321.73 643.77 368.25 602.65 368.25 606.1"/><polygon class="cls-1" points="368.25 609.55 321.73 650.68 321.73 647.23 368.25 606.1 368.25 609.55"/><polygon class="cls-1" points="368.25 613 321.73 654.13 321.73 650.68 368.25 609.55 368.25 613"/><polygon class="cls-1" points="368.25 616.46 321.73 657.58 321.73 654.13 368.25 613 368.25 616.46"/><polygon class="cls-1" points="368.25 619.91 323.17 659.76 321.73 659.76 321.73 657.58 368.25 616.46 368.25 619.91"/><polygon class="cls-1" points="368.25 623.36 327.08 659.76 323.17 659.76 368.25 619.91 368.25 623.36"/><polygon class="cls-1" points="368.25 626.81 330.98 659.76 327.08 659.76 368.25 623.36 368.25 626.81"/><polygon class="cls-1" points="368.25 630.26 334.88 659.76 330.98 659.76 368.25 626.81 368.25 630.26"/><polygon class="cls-1" points="368.25 633.72 338.79 659.76 334.88 659.76 368.25 630.26 368.25 633.72"/><polygon class="cls-1" points="368.25 637.17 342.69 659.76 338.79 659.76 368.25 633.72 368.25 637.17"/><polygon class="cls-1" points="368.25 640.62 346.6 659.76 342.69 659.76 368.25 637.17 368.25 640.62"/><polygon class="cls-1" points="368.25 644.07 350.5 659.76 346.6 659.76 368.25 640.62 368.25 644.07"/><polygon class="cls-1" points="368.25 647.52 354.41 659.76 350.5 659.76 368.25 644.07 368.25 647.52"/><polygon class="cls-1" points="368.25 650.98 358.31 659.76 354.41 659.76 368.25 647.52 368.25 650.98"/><polygon class="cls-1" points="368.25 654.43 362.22 659.76 358.31 659.76 368.25 650.98 368.25 654.43"/><polygon class="cls-1" points="368.25 657.88 366.12 659.76 362.22 659.76 368.25 654.43 368.25 657.88"/><polygon class="cls-1" points="366.12 659.76 368.25 657.88 368.25 659.76 366.12 659.76"/><polygon class="cls-1" points="278.79 488.43 276.62 490.35 276.62 488.43 278.79 488.43"/><polygon class="cls-1" points="282.69 488.43 276.62 493.8 276.62 490.35 278.79 488.43 282.69 488.43"/><polygon class="cls-1" points="286.6 488.43 276.62 497.25 276.62 493.8 282.69 488.43 286.6 488.43"/><polygon class="cls-1" points="290.5 488.43 276.62 500.7 276.62 497.25 286.6 488.43 290.5 488.43"/><polygon class="cls-1" points="294.41 488.43 276.62 504.15 276.62 500.7 290.5 488.43 294.41 488.43"/><polygon class="cls-1" points="298.31 488.43 276.62 507.61 276.62 504.15 294.41 488.43 298.31 488.43"/><polygon class="cls-1" points="302.22 488.43 276.62 511.06 276.62 507.61 298.31 488.43 302.22 488.43"/><polygon class="cls-1" points="306.12 488.43 276.62 514.51 276.62 511.06 302.22 488.43 306.12 488.43"/><polygon class="cls-1" points="310.02 488.43 276.62 517.96 276.62 514.51 306.12 488.43 310.02 488.43"/><polygon class="cls-1" points="313.93 488.43 276.62 521.41 276.62 517.96 310.02 488.43 313.93 488.43"/><polygon class="cls-1" points="317.83 488.43 276.62 524.87 276.62 521.41 313.93 488.43 317.83 488.43"/><polygon class="cls-1" points="321.74 488.43 276.62 528.32 276.62 524.87 317.83 488.43 321.74 488.43"/><polygon class="cls-1" points="325.64 488.43 276.62 531.77 276.62 528.32 321.74 488.43 325.64 488.43"/><polygon class="cls-1" points="329.55 488.43 276.62 535.22 276.62 531.77 325.64 488.43 329.55 488.43"/><polygon class="cls-1" points="333.45 488.43 276.62 538.67 276.62 535.22 329.55 488.43 333.45 488.43"/><polygon class="cls-1" points="337.36 488.43 276.62 542.13 276.62 538.67 333.45 488.43 337.36 488.43"/><polygon class="cls-1" points="341.26 488.43 276.62 545.58 276.62 542.13 337.36 488.43 341.26 488.43"/><polygon class="cls-1" points="345.17 488.43 276.62 549.03 276.62 545.58 341.26 488.43 345.17 488.43"/><polygon class="cls-1" points="349.07 488.43 276.62 552.48 276.62 549.03 345.17 488.43 349.07 488.43"/><polygon class="cls-1" points="352.98 488.43 276.62 555.93 276.62 552.48 349.07 488.43 352.98 488.43"/><polygon class="cls-1" points="356.88 488.43 276.62 559.38 276.62 555.93 352.98 488.43 356.88 488.43"/><polygon class="cls-1" points="360.79 488.43 276.62 562.84 276.62 559.38 356.88 488.43 360.79 488.43"/><polygon class="cls-1" points="364.69 488.43 276.62 566.29 276.62 562.84 360.79 488.43 364.69 488.43"/><polygon class="cls-1" points="368.59 488.43 276.62 569.74 276.62 566.29 364.69 488.43 368.59 488.43"/><polygon class="cls-1" points="372.5 488.43 276.62 573.19 276.62 569.74 368.59 488.43 372.5 488.43"/><polygon class="cls-1" points="376.4 488.43 276.62 576.64 276.62 573.19 372.5 488.43 376.4 488.43"/><polygon class="cls-1" points="380.31 488.43 276.62 580.1 276.62 576.64 376.4 488.43 380.31 488.43"/><polygon class="cls-1" points="384.21 488.43 276.62 583.55 276.62 580.1 380.31 488.43 384.21 488.43"/><polygon class="cls-1" points="388.12 488.43 276.62 587 276.62 583.55 384.21 488.43 388.12 488.43"/><polygon class="cls-1" points="392.02 488.43 276.62 590.45 276.62 587 388.12 488.43 392.02 488.43"/><polygon class="cls-1" points="395.93 488.43 276.62 593.9 276.62 590.45 392.02 488.43 395.93 488.43"/><polygon class="cls-1" points="399.29 488.43 399.53 488.7 276.62 597.36 276.62 593.9 395.93 488.43 399.29 488.43"/><polygon class="cls-1" points="399.53 488.7 401.24 490.64 276.62 600.81 276.62 597.36 399.53 488.7"/><polygon class="cls-1" points="401.24 490.64 402.95 492.57 276.62 604.26 276.62 600.81 401.24 490.64"/><polygon class="cls-1" points="402.95 492.57 404.67 494.51 276.62 607.71 276.62 604.26 402.95 492.57"/><polygon class="cls-1" points="404.67 494.51 406.38 496.45 276.62 611.16 276.62 607.71 404.67 494.51"/><polygon class="cls-1" points="406.38 496.45 408.09 498.39 276.62 614.62 276.62 611.16 406.38 496.45"/><polygon class="cls-1" points="408.09 498.39 409.8 500.32 276.62 618.07 276.62 614.62 408.09 498.39"/><polygon class="cls-1" points="409.8 500.32 411.52 502.26 276.62 621.52 276.62 618.07 409.8 500.32"/><polygon class="cls-1" points="411.52 502.26 413.23 504.2 276.62 624.97 276.62 621.52 411.52 502.26"/><polygon class="cls-1" points="413.23 504.2 413.36 504.34 413.36 507.54 276.62 628.42 276.62 624.97 413.23 504.2"/><polygon class="cls-1" points="413.36 510.99 276.62 631.87 276.62 628.42 413.36 507.54 413.36 510.99"/><polygon class="cls-1" points="413.36 514.44 276.62 635.33 276.62 631.87 413.36 510.99 413.36 514.44"/><polygon class="cls-1" points="413.36 517.89 276.62 638.78 276.62 635.33 413.36 514.44 413.36 517.89"/><polygon class="cls-1" points="413.36 521.35 276.62 642.23 276.62 638.78 413.36 517.89 413.36 521.35"/><polygon class="cls-1" points="413.36 524.8 276.62 645.68 276.62 642.23 413.36 521.35 413.36 524.8"/><polygon class="cls-1" points="413.36 528.25 276.62 649.13 276.62 645.68 413.36 524.8 413.36 528.25"/><polygon class="cls-1" points="413.36 531.7 276.62 652.59 276.62 649.13 413.36 528.25 413.36 531.7"/><polygon class="cls-1" points="413.36 535.15 276.62 656.04 276.62 652.59 413.36 531.7 413.36 535.15"/><polygon class="cls-1" points="413.36 538.61 276.62 659.49 276.62 656.04 413.36 535.15 413.36 538.61"/><polygon class="cls-1" points="413.36 542.06 276.62 662.94 276.62 659.49 413.36 538.61 413.36 542.06"/><polygon class="cls-1" points="413.36 545.51 276.62 666.39 276.62 662.94 413.36 542.06 413.36 545.51"/><polygon class="cls-1" points="413.36 548.96 276.62 669.85 276.62 666.39 413.36 545.51 413.36 548.96"/><polygon class="cls-1" points="413.36 552.41 276.62 673.3 276.62 669.85 413.36 548.96 413.36 552.41"/><polygon class="cls-1" points="413.36 555.87 276.62 676.75 276.62 673.3 413.36 552.41 413.36 555.87"/><polygon class="cls-1" points="413.36 559.32 276.62 680.2 276.62 676.75 413.36 555.87 413.36 559.32"/><polygon class="cls-1" points="413.36 562.77 276.62 683.65 276.62 680.2 413.36 559.32 413.36 562.77"/><polygon class="cls-1" points="413.36 566.22 276.62 687.11 276.62 683.65 413.36 562.77 413.36 566.22"/><polygon class="cls-1" points="413.36 569.67 276.62 690.56 276.62 687.11 413.36 566.22 413.36 569.67"/><polygon class="cls-1" points="413.36 573.13 276.62 694.01 276.62 690.56 413.36 569.67 413.36 573.13"/><polygon class="cls-1" points="413.36 576.58 276.62 697.46 276.62 694.01 413.36 573.13 413.36 576.58"/><polygon class="cls-1" points="413.36 580.03 276.62 700.91 276.62 697.46 413.36 576.58 413.36 580.03"/><polygon class="cls-1" points="413.36 583.48 276.62 704.36 276.62 700.91 413.36 580.03 413.36 583.48"/><polygon class="cls-1" points="413.36 586.93 276.62 707.82 276.62 704.36 413.36 583.48 413.36 586.93"/><polygon class="cls-1" points="413.36 590.38 276.62 711.27 276.62 707.82 413.36 586.93 413.36 590.38"/><polygon class="cls-1" points="413.36 593.84 276.62 714.72 276.62 711.27 413.36 590.38 413.36 593.84"/><polygon class="cls-1" points="413.36 597.29 276.62 718.17 276.62 714.72 413.36 593.84 413.36 597.29"/><polygon class="cls-1" points="413.36 600.74 276.62 721.62 276.62 718.17 413.36 597.29 413.36 600.74"/><polygon class="cls-1" points="413.36 604.19 276.62 725.08 276.62 721.62 413.36 600.74 413.36 604.19"/><polygon class="cls-1" points="413.36 607.64 276.62 728.53 276.62 725.08 413.36 604.19 413.36 607.64"/><polygon class="cls-1" points="413.36 611.1 276.62 731.98 276.62 728.53 413.36 607.64 413.36 611.1"/><polygon class="cls-1" points="413.36 614.55 276.62 735.43 276.62 731.98 413.36 611.1 413.36 614.55"/><polygon class="cls-1" points="413.36 618 276.62 738.88 276.62 735.43 413.36 614.55 413.36 618"/><polygon class="cls-1" points="413.36 621.45 276.62 742.34 276.62 738.88 413.36 618 413.36 621.45"/><polygon class="cls-1" points="413.36 624.9 276.62 745.79 276.62 742.34 413.36 621.45 413.36 624.9"/><polygon class="cls-1" points="413.36 628.36 276.62 749.24 276.62 745.79 413.36 624.9 413.36 628.36"/><polygon class="cls-1" points="413.36 631.81 276.62 752.69 276.62 749.24 413.36 628.36 413.36 631.81"/><polygon class="cls-1" points="413.36 635.26 276.62 756.14 276.62 752.69 413.36 631.81 413.36 635.26"/><polygon class="cls-1" points="413.36 638.71 276.62 759.59 276.62 756.14 413.36 635.26 413.36 638.71"/><polygon class="cls-1" points="413.36 642.16 276.62 763.05 276.62 759.59 413.36 638.71 413.36 642.16"/><polygon class="cls-1" points="413.36 645.62 276.62 766.5 276.62 763.05 413.36 642.16 413.36 645.62"/><polygon class="cls-1" points="413.36 649.07 276.62 769.95 276.62 766.5 413.36 645.62 413.36 649.07"/><polygon class="cls-1" points="413.36 652.52 276.62 773.4 276.62 769.95 413.36 649.07 413.36 652.52"/><polygon class="cls-1" points="413.36 655.97 276.62 776.85 276.62 773.4 413.36 652.52 413.36 655.97"/><polygon class="cls-1" points="413.36 659.42 276.62 780.31 276.62 776.85 413.36 655.97 413.36 659.42"/><polygon class="cls-1" points="413.36 662.88 276.62 783.76 276.62 780.31 413.36 659.42 413.36 662.88"/><polygon class="cls-1" points="413.36 666.33 276.62 787.21 276.62 783.76 413.36 662.88 413.36 666.33"/><polygon class="cls-1" points="413.36 669.78 276.62 790.66 276.62 787.21 413.36 666.33 413.36 669.78"/><polygon class="cls-1" points="413.36 673.23 276.62 794.11 276.62 790.66 413.36 669.78 413.36 673.23"/><polygon class="cls-1" points="413.36 676.68 276.62 797.57 276.62 794.11 413.36 673.23 413.36 676.68"/><polygon class="cls-1" points="413.36 680.13 276.62 801.02 276.62 797.57 413.36 676.68 413.36 680.13"/><polygon class="cls-1" points="413.36 683.59 276.62 804.47 276.62 801.02 413.36 680.13 413.36 683.59"/><polygon class="cls-1" points="413.36 687.04 276.62 807.92 276.62 804.47 413.36 683.59 413.36 687.04"/><polygon class="cls-1" points="413.36 690.49 276.62 811.37 276.62 807.92 413.36 687.04 413.36 690.49"/><polygon class="cls-1" points="413.36 693.94 276.62 814.83 276.62 811.37 413.36 690.49 413.36 693.94"/><polygon class="cls-1" points="413.36 697.39 276.62 818.28 276.62 814.83 413.36 693.94 413.36 697.39"/><polygon class="cls-1" points="413.36 700.85 278.57 820 276.62 820 276.62 818.28 413.36 697.39 413.36 700.85"/><polygon class="cls-1" points="413.36 704.3 282.48 820 278.57 820 413.36 700.85 413.36 704.3"/><polygon class="cls-1" points="413.36 707.75 286.38 820 282.48 820 413.36 704.3 413.36 707.75"/><polygon class="cls-1" points="413.36 711.2 290.29 820 286.38 820 413.36 707.75 413.36 711.2"/><polygon class="cls-1" points="413.36 714.65 294.19 820 290.29 820 413.36 711.2 413.36 714.65"/><polygon class="cls-1" points="413.36 718.11 298.1 820 294.19 820 413.36 714.65 413.36 718.11"/><polygon class="cls-1" points="413.36 721.56 302 820 298.1 820 413.36 718.11 413.36 721.56"/><polygon class="cls-1" points="413.36 725.01 305.91 820 302 820 413.36 721.56 413.36 725.01"/><polygon class="cls-1" points="413.36 728.46 309.81 820 305.91 820 413.36 725.01 413.36 728.46"/><polygon class="cls-1" points="413.36 731.91 313.71 820 309.81 820 413.36 728.46 413.36 731.91"/><polygon class="cls-1" points="413.36 735.36 317.62 820 313.71 820 413.36 731.91 413.36 735.36"/><polygon class="cls-1" points="413.36 738.82 321.52 820 317.62 820 413.36 735.36 413.36 738.82"/><polygon class="cls-1" points="413.36 742.27 325.43 820 321.52 820 413.36 738.82 413.36 742.27"/><polygon class="cls-1" points="413.36 745.72 329.33 820 325.43 820 413.36 742.27 413.36 745.72"/><polygon class="cls-1" points="413.36 749.17 333.24 820 329.33 820 413.36 745.72 413.36 749.17"/><polygon class="cls-1" points="413.36 752.62 337.14 820 333.24 820 413.36 749.17 413.36 752.62"/><polygon class="cls-1" points="413.36 756.08 341.05 820 337.14 820 413.36 752.62 413.36 756.08"/><polygon class="cls-1" points="413.36 759.53 344.95 820 341.05 820 413.36 756.08 413.36 759.53"/><polygon class="cls-1" points="413.36 762.98 348.86 820 344.95 820 413.36 759.53 413.36 762.98"/><polygon class="cls-1" points="413.36 766.43 352.76 820 348.86 820 413.36 762.98 413.36 766.43"/><polygon class="cls-1" points="413.36 769.88 356.67 820 352.76 820 413.36 766.43 413.36 769.88"/><polygon class="cls-1" points="413.36 773.34 360.57 820 356.67 820 413.36 769.88 413.36 773.34"/><polygon class="cls-1" points="413.36 776.79 364.48 820 360.57 820 413.36 773.34 413.36 776.79"/><polygon class="cls-1" points="413.36 780.24 368.38 820 364.48 820 413.36 776.79 413.36 780.24"/><polygon class="cls-1" points="413.36 783.69 372.28 820 368.38 820 413.36 780.24 413.36 783.69"/><polygon class="cls-1" points="413.36 787.14 376.19 820 372.28 820 413.36 783.69 413.36 787.14"/><polygon class="cls-1" points="413.36 790.6 380.09 820 376.19 820 413.36 787.14 413.36 790.6"/><polygon class="cls-1" points="413.36 794.05 384 820 380.09 820 413.36 790.6 413.36 794.05"/><polygon class="cls-1" points="413.36 797.5 387.9 820 384 820 413.36 794.05 413.36 797.5"/><polygon class="cls-1" points="413.36 800.95 391.81 820 387.9 820 413.36 797.5 413.36 800.95"/><polygon class="cls-1" points="413.36 804.4 395.71 820 391.81 820 413.36 800.95 413.36 804.4"/><polygon class="cls-1" points="413.36 807.85 399.62 820 395.71 820 413.36 804.4 413.36 807.85"/><polygon class="cls-1" points="413.36 811.31 403.52 820 399.62 820 413.36 807.85 413.36 811.31"/><polygon class="cls-1" points="413.36 814.76 407.43 820 403.52 820 413.36 811.31 413.36 814.76"/><polygon class="cls-1" points="413.36 818.21 411.33 820 407.43 820 413.36 814.76 413.36 818.21"/><polygon class="cls-1" points="411.33 820 413.36 818.21 413.36 820 411.33 820"/></g><path class="cls-1" d="M592.23,820q-51.35,0-51.33-56.34V545.23q0-56.81,50.89-56.8h40.7q50.88,0,50.89,56.8V763.66q0,56.34-51.33,56.34Zm10.17-40.18h21.69q16.8,0,16.81-19.39V548q0-19.39-19-19.39H602q-18.59,0-18.58,19.39V760.43Q583.38,779.83,602.4,779.82Z"/><g class="cls-6"><polygon class="cls-1" points="584.76 528.61 583.38 529.82 583.38 528.61 584.76 528.61"/><polygon class="cls-1" points="588.66 528.61 583.38 533.28 583.38 529.82 584.76 528.61 588.66 528.61"/><polygon class="cls-1" points="592.57 528.61 583.38 536.73 583.38 533.28 588.66 528.61 592.57 528.61"/><polygon class="cls-1" points="596.47 528.61 583.38 540.18 583.38 536.73 592.57 528.61 596.47 528.61"/><polygon class="cls-1" points="600.37 528.61 583.38 543.63 583.38 540.18 596.47 528.61 600.37 528.61"/><polygon class="cls-1" points="604.28 528.61 583.38 547.08 583.38 543.63 600.37 528.61 604.28 528.61"/><polygon class="cls-1" points="608.18 528.61 583.38 550.54 583.38 547.08 604.28 528.61 608.18 528.61"/><polygon class="cls-1" points="612.09 528.61 583.38 553.99 583.38 550.54 608.18 528.61 612.09 528.61"/><polygon class="cls-1" points="615.99 528.61 583.38 557.44 583.38 553.99 612.09 528.61 615.99 528.61"/><polygon class="cls-1" points="619.9 528.61 583.38 560.89 583.38 557.44 615.99 528.61 619.9 528.61"/><polygon class="cls-1" points="623.8 528.61 583.38 564.34 583.38 560.89 619.9 528.61 623.8 528.61"/><polygon class="cls-1" points="627.71 528.61 583.38 567.79 583.38 564.34 623.8 528.61 627.71 528.61"/><polygon class="cls-1" points="631.61 528.61 583.38 571.25 583.38 567.79 627.71 528.61 631.61 528.61"/><polygon class="cls-1" points="635.51 528.61 583.38 574.7 583.38 571.25 631.61 528.61 635.51 528.61"/><polygon class="cls-1" points="637.86 528.61 638.54 529.38 583.38 578.15 583.38 574.7 635.51 528.61 637.86 528.61"/><polygon class="cls-1" points="638.54 529.38 640.26 531.32 583.38 581.6 583.38 578.15 638.54 529.38"/><polygon class="cls-1" points="640.26 531.32 640.9 532.05 640.9 534.2 583.38 585.05 583.38 581.6 640.26 531.32"/><polygon class="cls-1" points="640.9 537.65 583.38 588.51 583.38 585.05 640.9 534.2 640.9 537.65"/><polygon class="cls-1" points="640.9 541.1 583.38 591.96 583.38 588.51 640.9 537.65 640.9 541.1"/><polygon class="cls-1" points="640.9 544.55 583.38 595.41 583.38 591.96 640.9 541.1 640.9 544.55"/><polygon class="cls-1" points="640.9 548.01 583.38 598.86 583.38 595.41 640.9 544.55 640.9 548.01"/><polygon class="cls-1" points="640.9 551.46 583.38 602.31 583.38 598.86 640.9 548.01 640.9 551.46"/><polygon class="cls-1" points="640.9 554.91 583.38 605.77 583.38 602.31 640.9 551.46 640.9 554.91"/><polygon class="cls-1" points="640.9 558.36 583.38 609.22 583.38 605.77 640.9 554.91 640.9 558.36"/><polygon class="cls-1" points="640.9 561.82 583.38 612.67 583.38 609.22 640.9 558.36 640.9 561.82"/><polygon class="cls-1" points="640.9 565.27 583.38 616.12 583.38 612.67 640.9 561.82 640.9 565.27"/><polygon class="cls-1" points="640.9 568.72 583.38 619.57 583.38 616.12 640.9 565.27 640.9 568.72"/><polygon class="cls-1" points="640.9 572.17 583.38 623.02 583.38 619.57 640.9 568.72 640.9 572.17"/><polygon class="cls-1" points="640.9 575.62 583.38 626.48 583.38 623.02 640.9 572.17 640.9 575.62"/><polygon class="cls-1" points="640.9 579.07 583.38 629.93 583.38 626.48 640.9 575.62 640.9 579.07"/><polygon class="cls-1" points="640.9 582.53 583.38 633.38 583.38 629.93 640.9 579.07 640.9 582.53"/><polygon class="cls-1" points="640.9 585.98 583.38 636.83 583.38 633.38 640.9 582.53 640.9 585.98"/><polygon class="cls-1" points="640.9 589.43 583.38 640.28 583.38 636.83 640.9 585.98 640.9 589.43"/><polygon class="cls-1" points="640.9 592.88 583.38 643.74 583.38 640.28 640.9 589.43 640.9 592.88"/><polygon class="cls-1" points="640.9 596.33 583.38 647.19 583.38 643.74 640.9 592.88 640.9 596.33"/><polygon class="cls-1" points="640.9 599.79 583.38 650.64 583.38 647.19 640.9 596.33 640.9 599.79"/><polygon class="cls-1" points="640.9 603.24 583.38 654.09 583.38 650.64 640.9 599.79 640.9 603.24"/><polygon class="cls-1" points="640.9 606.69 583.38 657.54 583.38 654.09 640.9 603.24 640.9 606.69"/><polygon class="cls-1" points="640.9 610.14 583.38 661 583.38 657.54 640.9 606.69 640.9 610.14"/><polygon class="cls-1" points="640.9 613.59 583.38 664.45 583.38 661 640.9 610.14 640.9 613.59"/><polygon class="cls-1" points="640.9 617.04 583.38 667.9 583.38 664.45 640.9 613.59 640.9 617.04"/><polygon class="cls-1" points="640.9 620.5 583.38 671.35 583.38 667.9 640.9 617.04 640.9 620.5"/><polygon class="cls-1" points="640.9 623.95 583.38 674.8 583.38 671.35 640.9 620.5 640.9 623.95"/><polygon class="cls-1" points="640.9 627.4 583.38 678.26 583.38 674.8 640.9 623.95 640.9 627.4"/><polygon class="cls-1" points="640.9 630.85 583.38 681.71 583.38 678.26 640.9 627.4 640.9 630.85"/><polygon class="cls-1" points="640.9 634.3 583.38 685.16 583.38 681.71 640.9 630.85 640.9 634.3"/><polygon class="cls-1" points="640.9 637.76 583.38 688.61 583.38 685.16 640.9 634.3 640.9 637.76"/><polygon class="cls-1" points="640.9 641.21 583.38 692.06 583.38 688.61 640.9 637.76 640.9 641.21"/><polygon class="cls-1" points="640.9 644.66 583.38 695.51 583.38 692.06 640.9 641.21 640.9 644.66"/><polygon class="cls-1" points="640.9 648.11 583.38 698.97 583.38 695.51 640.9 644.66 640.9 648.11"/><polygon class="cls-1" points="640.9 651.56 583.38 702.42 583.38 698.97 640.9 648.11 640.9 651.56"/><polygon class="cls-1" points="640.9 655.02 583.38 705.87 583.38 702.42 640.9 651.56 640.9 655.02"/><polygon class="cls-1" points="640.9 658.47 583.38 709.32 583.38 705.87 640.9 655.02 640.9 658.47"/><polygon class="cls-1" points="640.9 661.92 583.38 712.77 583.38 709.32 640.9 658.47 640.9 661.92"/><polygon class="cls-1" points="640.9 665.37 583.38 716.23 583.38 712.77 640.9 661.92 640.9 665.37"/><polygon class="cls-1" points="640.9 668.82 583.38 719.68 583.38 716.23 640.9 665.37 640.9 668.82"/><polygon class="cls-1" points="640.9 672.27 583.38 723.13 583.38 719.68 640.9 668.82 640.9 672.27"/><polygon class="cls-1" points="640.9 675.73 583.38 726.58 583.38 723.13 640.9 672.27 640.9 675.73"/><polygon class="cls-1" points="640.9 679.18 583.38 730.03 583.38 726.58 640.9 675.73 640.9 679.18"/><polygon class="cls-1" points="640.9 682.63 583.38 733.49 583.38 730.03 640.9 679.18 640.9 682.63"/><polygon class="cls-1" points="640.9 686.08 583.38 736.94 583.38 733.49 640.9 682.63 640.9 686.08"/><polygon class="cls-1" points="640.9 689.53 583.38 740.39 583.38 736.94 640.9 686.08 640.9 689.53"/><polygon class="cls-1" points="640.9 692.99 583.38 743.84 583.38 740.39 640.9 689.53 640.9 692.99"/><polygon class="cls-1" points="640.9 696.44 583.38 747.29 583.38 743.84 640.9 692.99 640.9 696.44"/><polygon class="cls-1" points="640.9 699.89 583.38 750.75 583.38 747.29 640.9 696.44 640.9 699.89"/><polygon class="cls-1" points="640.9 703.34 583.38 754.2 583.38 750.75 640.9 699.89 640.9 703.34"/><polygon class="cls-1" points="640.9 706.79 583.38 757.65 583.38 754.2 640.9 703.34 640.9 706.79"/><polygon class="cls-1" points="640.9 710.25 583.38 761.1 583.38 757.65 640.9 706.79 640.9 710.25"/><polygon class="cls-1" points="640.9 713.7 583.38 764.55 583.38 761.1 640.9 710.25 640.9 713.7"/><polygon class="cls-1" points="640.9 717.15 583.38 768 583.38 764.55 640.9 713.7 640.9 717.15"/><polygon class="cls-1" points="640.9 720.6 583.38 771.46 583.38 768 640.9 717.15 640.9 720.6"/><polygon class="cls-1" points="640.9 724.05 583.38 774.91 583.38 771.46 640.9 720.6 640.9 724.05"/><polygon class="cls-1" points="640.9 727.5 584.36 777.49 583.38 776.38 583.38 774.91 640.9 724.05 640.9 727.5"/><polygon class="cls-1" points="586.42 779.82 584.36 777.49 640.9 727.5 640.9 779.82 586.42 779.82"/><polygon class="cls-1" points="544.3 488.43 540.9 491.44 540.9 488.43 544.3 488.43"/><polygon class="cls-1" points="548.21 488.43 540.9 494.89 540.9 491.44 544.3 488.43 548.21 488.43"/><polygon class="cls-1" points="552.11 488.43 540.9 498.34 540.9 494.89 548.21 488.43 552.11 488.43"/><polygon class="cls-1" points="556.01 488.43 540.9 501.79 540.9 498.34 552.11 488.43 556.01 488.43"/><polygon class="cls-1" points="559.92 488.43 540.9 505.24 540.9 501.79 556.01 488.43 559.92 488.43"/><polygon class="cls-1" points="563.82 488.43 540.9 508.7 540.9 505.24 559.92 488.43 563.82 488.43"/><polygon class="cls-1" points="567.73 488.43 540.9 512.15 540.9 508.7 563.82 488.43 567.73 488.43"/><polygon class="cls-1" points="571.63 488.43 540.9 515.6 540.9 512.15 567.73 488.43 571.63 488.43"/><polygon class="cls-1" points="575.54 488.43 540.9 519.05 540.9 515.6 571.63 488.43 575.54 488.43"/><polygon class="cls-1" points="579.44 488.43 540.9 522.5 540.9 519.05 575.54 488.43 579.44 488.43"/><polygon class="cls-1" points="583.35 488.43 540.9 525.96 540.9 522.5 579.44 488.43 583.35 488.43"/><polygon class="cls-1" points="587.25 488.43 540.9 529.41 540.9 525.96 583.35 488.43 587.25 488.43"/><polygon class="cls-1" points="591.16 488.43 540.9 532.86 540.9 529.41 587.25 488.43 591.16 488.43"/><polygon class="cls-1" points="595.06 488.43 540.9 536.31 540.9 532.86 591.16 488.43 595.06 488.43"/><polygon class="cls-1" points="598.97 488.43 540.9 539.76 540.9 536.31 595.06 488.43 598.97 488.43"/><polygon class="cls-1" points="602.87 488.43 540.9 543.22 540.9 539.76 598.97 488.43 602.87 488.43"/><polygon class="cls-1" points="606.77 488.43 540.9 546.67 540.9 543.22 602.87 488.43 606.77 488.43"/><polygon class="cls-1" points="610.68 488.43 540.9 550.12 540.9 546.67 606.77 488.43 610.68 488.43"/><polygon class="cls-1" points="614.58 488.43 540.9 553.57 540.9 550.12 610.68 488.43 614.58 488.43"/><polygon class="cls-1" points="618.49 488.43 540.9 557.02 540.9 553.57 614.58 488.43 618.49 488.43"/><polygon class="cls-1" points="622.39 488.43 540.9 560.47 540.9 557.02 618.49 488.43 622.39 488.43"/><polygon class="cls-1" points="626.3 488.43 540.9 563.93 540.9 560.47 622.39 488.43 626.3 488.43"/><polygon class="cls-1" points="630.2 488.43 540.9 567.38 540.9 563.93 626.3 488.43 630.2 488.43"/><polygon class="cls-1" points="634.11 488.43 540.9 570.83 540.9 567.38 630.2 488.43 634.11 488.43"/><polygon class="cls-1" points="638.01 488.43 540.9 574.28 540.9 570.83 634.11 488.43 638.01 488.43"/><polygon class="cls-1" points="641.92 488.43 540.9 577.73 540.9 574.28 638.01 488.43 641.92 488.43"/><polygon class="cls-1" points="645.82 488.43 540.9 581.18 540.9 577.73 641.92 488.43 645.82 488.43"/><polygon class="cls-1" points="649.73 488.43 540.9 584.64 540.9 581.18 645.82 488.43 649.73 488.43"/><polygon class="cls-1" points="653.63 488.43 540.9 588.09 540.9 584.64 649.73 488.43 653.63 488.43"/><polygon class="cls-1" points="657.53 488.43 540.9 591.54 540.9 588.09 653.63 488.43 657.53 488.43"/><polygon class="cls-1" points="661.44 488.43 540.9 594.99 540.9 591.54 657.53 488.43 661.44 488.43"/><polygon class="cls-1" points="665.34 488.43 540.9 598.45 540.9 594.99 661.44 488.43 665.34 488.43"/><polygon class="cls-1" points="669.25 488.43 540.9 601.9 540.9 598.45 665.34 488.43 669.25 488.43"/><polygon class="cls-1" points="669.31 488.43 671 490.33 540.9 605.35 540.9 601.9 669.25 488.43 669.31 488.43"/><polygon class="cls-1" points="671 490.33 672.71 492.27 540.9 608.8 540.9 605.35 671 490.33"/><polygon class="cls-1" points="672.71 492.27 674.42 494.21 540.9 612.25 540.9 608.8 672.71 492.27"/><polygon class="cls-1" points="674.42 494.21 676.14 496.15 540.9 615.7 540.9 612.25 674.42 494.21"/><polygon class="cls-1" points="676.14 496.15 677.85 498.08 540.9 619.16 540.9 615.7 676.14 496.15"/><polygon class="cls-1" points="677.85 498.08 679.56 500.02 540.9 622.61 540.9 619.16 677.85 498.08"/><polygon class="cls-1" points="679.56 500.02 681.27 501.96 540.9 626.06 540.9 622.61 679.56 500.02"/><polygon class="cls-1" points="681.27 501.96 682.99 503.9 540.9 629.51 540.9 626.06 681.27 501.96"/><polygon class="cls-1" points="682.99 503.9 683.38 504.34 683.38 507 540.9 632.96 540.9 629.51 682.99 503.9"/><polygon class="cls-1" points="683.38 510.45 540.9 636.42 540.9 632.96 683.38 507 683.38 510.45"/><polygon class="cls-1" points="683.38 513.91 540.9 639.87 540.9 636.42 683.38 510.45 683.38 513.91"/><polygon class="cls-1" points="683.38 517.36 540.9 643.32 540.9 639.87 683.38 513.91 683.38 517.36"/><polygon class="cls-1" points="683.38 520.81 540.9 646.77 540.9 643.32 683.38 517.36 683.38 520.81"/><polygon class="cls-1" points="683.38 524.26 540.9 650.22 540.9 646.77 683.38 520.81 683.38 524.26"/><polygon class="cls-1" points="683.38 527.71 540.9 653.67 540.9 650.22 683.38 524.26 683.38 527.71"/><polygon class="cls-1" points="683.38 531.16 540.9 657.13 540.9 653.67 683.38 527.71 683.38 531.16"/><polygon class="cls-1" points="683.38 534.62 540.9 660.58 540.9 657.13 683.38 531.16 683.38 534.62"/><polygon class="cls-1" points="683.38 538.07 540.9 664.03 540.9 660.58 683.38 534.62 683.38 538.07"/><polygon class="cls-1" points="683.38 541.52 540.9 667.48 540.9 664.03 683.38 538.07 683.38 541.52"/><polygon class="cls-1" points="683.38 544.97 540.9 670.93 540.9 667.48 683.38 541.52 683.38 544.97"/><polygon class="cls-1" points="683.38 548.42 540.9 674.39 540.9 670.93 683.38 544.97 683.38 548.42"/><polygon class="cls-1" points="683.38 551.88 540.9 677.84 540.9 674.39 683.38 548.42 683.38 551.88"/><polygon class="cls-1" points="683.38 555.33 540.9 681.29 540.9 677.84 683.38 551.88 683.38 555.33"/><polygon class="cls-1" points="683.38 558.78 540.9 684.74 540.9 681.29 683.38 555.33 683.38 558.78"/><polygon class="cls-1" points="683.38 562.23 540.9 688.19 540.9 684.74 683.38 558.78 683.38 562.23"/><polygon class="cls-1" points="683.38 565.68 540.9 691.65 540.9 688.19 683.38 562.23 683.38 565.68"/><polygon class="cls-1" points="683.38 569.14 540.9 695.1 540.9 691.65 683.38 565.68 683.38 569.14"/><polygon class="cls-1" points="683.38 572.59 540.9 698.55 540.9 695.1 683.38 569.14 683.38 572.59"/><polygon class="cls-1" points="683.38 576.04 540.9 702 540.9 698.55 683.38 572.59 683.38 576.04"/><polygon class="cls-1" points="683.38 579.49 540.9 705.45 540.9 702 683.38 576.04 683.38 579.49"/><polygon class="cls-1" points="683.38 582.94 540.9 708.9 540.9 705.45 683.38 579.49 683.38 582.94"/><polygon class="cls-1" points="683.38 586.39 540.9 712.36 540.9 708.9 683.38 582.94 683.38 586.39"/><polygon class="cls-1" points="683.38 589.85 540.9 715.81 540.9 712.36 683.38 586.39 683.38 589.85"/><polygon class="cls-1" points="683.38 593.3 540.9 719.26 540.9 715.81 683.38 589.85 683.38 593.3"/><polygon class="cls-1" points="683.38 596.75 540.9 722.71 540.9 719.26 683.38 593.3 683.38 596.75"/><polygon class="cls-1" points="683.38 600.2 540.9 726.16 540.9 722.71 683.38 596.75 683.38 600.2"/><polygon class="cls-1" points="683.38 603.65 540.9 729.62 540.9 726.16 683.38 600.2 683.38 603.65"/><polygon class="cls-1" points="683.38 607.11 540.9 733.07 540.9 729.62 683.38 603.65 683.38 607.11"/><polygon class="cls-1" points="683.38 610.56 540.9 736.52 540.9 733.07 683.38 607.11 683.38 610.56"/><polygon class="cls-1" points="683.38 614.01 540.9 739.97 540.9 736.52 683.38 610.56 683.38 614.01"/><polygon class="cls-1" points="683.38 617.46 540.9 743.42 540.9 739.97 683.38 614.01 683.38 617.46"/><polygon class="cls-1" points="683.38 620.91 540.9 746.88 540.9 743.42 683.38 617.46 683.38 620.91"/><polygon class="cls-1" points="683.38 624.37 540.9 750.33 540.9 746.88 683.38 620.91 683.38 624.37"/><polygon class="cls-1" points="683.38 627.82 540.9 753.78 540.9 750.33 683.38 624.37 683.38 627.82"/><polygon class="cls-1" points="683.38 631.27 540.9 757.23 540.9 753.78 683.38 627.82 683.38 631.27"/><polygon class="cls-1" points="683.38 634.72 540.9 760.68 540.9 757.23 683.38 631.27 683.38 634.72"/><polygon class="cls-1" points="683.38 638.17 540.9 764.14 540.9 760.68 683.38 634.72 683.38 638.17"/><polygon class="cls-1" points="683.38 641.63 540.9 767.59 540.9 764.14 683.38 638.17 683.38 641.63"/><polygon class="cls-1" points="683.38 645.08 540.9 771.04 540.9 767.59 683.38 641.63 683.38 645.08"/><polygon class="cls-1" points="683.38 648.53 540.9 774.49 540.9 771.04 683.38 645.08 683.38 648.53"/><polygon class="cls-1" points="683.38 651.98 540.9 777.94 540.9 774.49 683.38 648.53 683.38 651.98"/><polygon class="cls-1" points="683.38 655.43 540.9 781.39 540.9 777.94 683.38 651.98 683.38 655.43"/><polygon class="cls-1" points="683.38 658.88 540.9 784.85 540.9 781.39 683.38 655.43 683.38 658.88"/><polygon class="cls-1" points="683.38 662.34 540.9 788.3 540.9 784.85 683.38 658.88 683.38 662.34"/><polygon class="cls-1" points="683.38 665.79 540.9 791.75 540.9 788.3 683.38 662.34 683.38 665.79"/><polygon class="cls-1" points="683.38 669.24 540.9 795.2 540.9 791.75 683.38 665.79 683.38 669.24"/><polygon class="cls-1" points="683.38 672.69 540.9 798.65 540.9 795.2 683.38 669.24 683.38 672.69"/><polygon class="cls-1" points="683.38 676.14 540.9 802.11 540.9 798.65 683.38 672.69 683.38 676.14"/><polygon class="cls-1" points="683.38 679.6 541.55 804.98 540.9 804.24 540.9 802.11 683.38 676.14 683.38 679.6"/><polygon class="cls-1" points="683.38 683.05 543.26 806.92 541.55 804.98 683.38 679.6 683.38 683.05"/><polygon class="cls-1" points="683.38 686.5 544.98 808.86 543.26 806.92 683.38 683.05 683.38 686.5"/><polygon class="cls-1" points="683.38 689.95 546.69 810.79 544.98 808.86 683.38 686.5 683.38 689.95"/><polygon class="cls-1" points="554.83 820 546.69 810.79 683.38 689.95 683.38 820 554.83 820"/></g><path class="cls-1" d="M817.34,874H142.66A56.73,56.73,0,0,1,86,817.34V142.66A56.73,56.73,0,0,1,142.66,86H817.34A56.73,56.73,0,0,1,874,142.66V817.34A56.73,56.73,0,0,1,817.34,874ZM142.66,126A16.67,16.67,0,0,0,126,142.66V817.34A16.67,16.67,0,0,0,142.66,834H817.34A16.67,16.67,0,0,0,834,817.34V142.66A16.67,16.67,0,0,0,817.34,126Z"/></svg>