<?xml version="1.0" standalone="no"?>
<!DOCTYPE svg PUBLIC "-//W3C//DTD SVG 20010904//EN"
 "http://www.w3.org/TR/2001/REC-SVG-20010904/DTD/svg10.dtd">
<svg version="1.0" xmlns="http://www.w3.org/2000/svg"
 width="960.000000pt" height="960.000000pt" viewBox="0 0 960.000000 960.000000"
 preserveAspectRatio="xMidYMid meet">
<metadata>
Created by potrace 1.11, written by Peter Selinger 2001-2013
</metadata>
<g transform="translate(0.000000,960.000000) scale(0.100000,-0.100000)"
fill="#000000" stroke="none">
<path d="M1305 8728 c-27 -5 -86 -27 -131 -48 -152 -73 -274 -232 -303 -394
-8 -42 -11 -1096 -11 -3478 0 -3805 -6 -3501 68 -3643 46 -87 145 -189 227
-232 118 -62 144 -66 441 -71 l271 -4 224 199 223 198 -476 5 c-462 5 -477 6
-504 26 -15 11 -37 33 -48 48 l-21 27 -3 3407 c-1 1874 0 3422 3 3440 7 40 59
101 102 118 27 12 600 14 3439 14 3137 0 3409 -1 3441 -16 19 -9 46 -33 61
-52 l27 -35 3 -824 c1 -454 6 -823 10 -821 5 2 94 79 200 173 l192 170 0 638
c0 543 -2 649 -16 715 -35 170 -151 318 -305 392 -48 22 -112 44 -149 50 -85
13 -6893 12 -6965 -2z"/>
<path d="M6552 7659 c-111 -99 -202 -184 -202 -191 0 -6 12 -1 28 13 79 69 91
77 33 22 -68 -64 -80 -103 -13 -42 27 24 26 22 -5 -9 -47 -47 -59 -80 -15 -41
26 23 26 23 -2 -8 -43 -47 -25 -51 27 -6 41 35 41 35 -5 -9 -48 -47 -69 -89
-25 -52 l22 19 -22 -25 c-19 -22 -22 -37 -22 -103 0 -56 4 -75 12 -70 9 5 9 3
0 -8 -8 -10 -13 -71 -14 -179 -3 -184 -11 -238 -44 -291 -41 -64 -76 -74 -277
-77 l-178 -4 0 48 0 47 -22 -19 -23 -19 23 26 c12 14 22 38 22 54 l0 28 -27
-24 -28 -24 26 30 c29 33 43 125 17 109 -10 -6 -10 -5 -2 7 7 8 12 27 12 42 0
27 -1 28 -22 10 -16 -14 -16 -12 3 10 37 41 16 46 -27 6 -27 -24 -26 -22 5 9
47 47 59 80 16 41 -27 -23 -27 -23 1 8 16 18 27 35 24 39 -8 7 -438 -374 -438
-388 0 -11 7 -6 81 57 19 16 10 5 -22 -25 -43 -42 -57 -62 -57 -83 l1 -28 26
23 c79 69 90 76 32 21 -68 -64 -80 -103 -13 -42 27 24 26 22 -5 -9 -43 -43
-60 -78 -25 -51 16 13 16 13 0 -7 -10 -11 -18 -33 -18 -49 l0 -28 23 19 22 19
-22 -25 -23 -26 0 -757 0 -757 225 0 226 0 -3 668 -3 667 135 0 135 0 41 -195
c44 -206 161 -745 215 -992 l32 -148 61 -1 c191 -2 348 0 353 4 4 5 -63 311
-227 1032 -38 169 -70 315 -70 324 0 9 20 29 44 44 62 39 113 99 147 172 56
120 61 161 66 630 5 418 5 429 -13 415 -18 -14 -18 -14 -1 6 9 11 17 33 17 49
l0 28 -22 -19 c-22 -18 -22 -18 0 8 22 24 23 32 16 85 -4 32 -7 65 -5 72 3 17
-6 11 -70 -43 -19 -17 -11 -7 19 22 58 54 66 87 9 36 l-32 -29 33 35 c33 37
42 57 20 44 -10 -6 -10 -4 0 8 7 9 9 19 5 21 -5 3 -100 -75 -211 -174z m188
138 c0 -2 -19 -21 -42 -42 l-43 -40 40 43 c36 39 45 47 45 39z m-44 -76 c-3
-4 -61 -57 -128 -116 -68 -60 -112 -97 -98 -82 26 28 223 206 228 206 2 1 1
-3 -2 -8z m-46 -5 c0 -2 -37 -36 -82 -76 l-83 -72 80 76 c79 75 85 80 85 72z
m120 1 c0 -2 -12 -14 -27 -28 l-28 -24 24 28 c23 25 31 32 31 24z m-10 -40 c0
-2 -15 -16 -32 -33 l-33 -29 29 33 c28 30 36 37 36 29z m-50 -10 c0 -2 -19
-21 -42 -42 l-43 -40 40 43 c36 39 45 47 45 39z m-50 -11 c0 -2 -37 -36 -82
-76 l-83 -72 80 76 c79 75 85 80 85 72z m120 1 c0 -2 -10 -12 -22 -23 l-23
-19 19 23 c18 21 26 27 26 19z m-110 -60 c0 -2 -15 -16 -32 -33 l-33 -29 29
33 c28 30 36 37 36 29z m80 0 c0 -2 -12 -14 -27 -28 l-28 -24 24 28 c23 25 31
32 31 24z m-140 -22 c-7 -9 -40 -38 -74 -66 -60 -51 -60 -50 9 14 69 65 90 82
65 52z m90 12 c0 -2 -10 -12 -22 -23 l-23 -19 19 23 c18 21 26 27 26 19z m10
-60 c0 -2 -12 -14 -27 -28 l-28 -24 24 28 c23 25 31 32 31 24z m40 0 c0 -2
-10 -12 -22 -23 l-23 -19 19 23 c18 21 26 27 26 19z m-170 -10 c0 -2 -15 -16
-32 -33 l-33 -29 29 33 c28 30 36 37 36 29z m80 0 c0 -2 -10 -12 -22 -23 l-23
-19 19 23 c18 21 26 27 26 19z m-170 -10 c0 -2 -19 -21 -42 -42 l-43 -40 40
43 c36 39 45 47 45 39z m120 0 c0 -2 -10 -12 -22 -23 l-23 -19 19 23 c18 21
26 27 26 19z m60 -50 c0 -2 -10 -12 -22 -23 l-23 -19 19 23 c18 21 26 27 26
19z m40 -1 c0 -2 -8 -10 -17 -17 -16 -13 -17 -12 -4 4 13 16 21 21 21 13z
m-210 -9 c0 -2 -15 -16 -32 -33 l-33 -29 29 33 c28 30 36 37 36 29z m120 0 c0
-2 -10 -12 -22 -23 l-23 -19 19 23 c18 21 26 27 26 19z m-90 -10 c0 -2 -12
-14 -27 -28 l-28 -24 24 28 c23 25 31 32 31 24z m40 0 c0 -2 -10 -12 -22 -23
l-23 -19 19 23 c18 21 26 27 26 19z m60 -50 c0 -2 -10 -12 -22 -23 l-23 -19
19 23 c18 21 26 27 26 19z m-90 -10 c0 -2 -12 -14 -27 -28 l-28 -24 24 28 c23
25 31 32 31 24z m40 0 c0 -2 -10 -12 -22 -23 l-23 -19 19 23 c18 21 26 27 26
19z m-90 -10 c0 -2 -12 -14 -27 -28 l-28 -24 24 28 c23 25 31 32 31 24z m-50
-10 c0 -2 -10 -12 -22 -23 l-23 -19 19 23 c18 21 26 27 26 19z m100 -50 c0 -2
-10 -12 -22 -23 l-23 -19 19 23 c18 21 26 27 26 19z m-90 -10 c0 -2 -10 -12
-22 -23 l-23 -19 19 23 c18 21 26 27 26 19z m40 -1 c0 -2 -8 -10 -17 -17 -16
-13 -17 -12 -4 4 13 16 21 21 21 13z m-90 -9 c0 -2 -10 -12 -22 -23 l-23 -19
19 23 c18 21 26 27 26 19z m10 -60 c0 -2 -10 -12 -22 -23 l-23 -19 19 23 c18
21 26 27 26 19z m40 -1 c0 -2 -8 -10 -17 -17 -16 -13 -17 -12 -4 4 13 16 21
21 21 13z m-664 -275 c-3 -4 -61 -57 -128 -116 -68 -60 -112 -97 -98 -82 26
28 223 206 228 206 2 1 1 -3 -2 -8z m14 -54 c0 -2 -19 -21 -42 -42 l-43 -40
40 43 c36 39 45 47 45 39z m40 0 c0 -2 -12 -14 -27 -28 l-28 -24 24 28 c23 25
31 32 31 24z m-90 -11 c0 -2 -37 -36 -82 -76 l-83 -72 80 76 c79 75 85 80 85
72z m60 -49 c0 -2 -15 -16 -32 -33 l-33 -29 29 33 c28 30 36 37 36 29z m-105
-63 c-71 -66 -186 -165 -165 -141 24 26 214 196 220 196 3 0 -22 -25 -55 -55z
m135 53 c0 -2 -12 -14 -27 -28 l-28 -24 24 28 c23 25 31 32 31 24z m-130 -11
c0 -2 -37 -36 -82 -76 l-83 -72 80 76 c79 75 85 80 85 72z m90 -59 c0 -2 -12
-14 -27 -28 l-28 -24 24 28 c23 25 31 32 31 24z m-50 -10 c0 -2 -10 -12 -22
-23 l-23 -19 19 23 c18 21 26 27 26 19z m-170 -10 c0 -2 -19 -21 -42 -42 l-43
-40 40 43 c36 39 45 47 45 39z m120 0 c0 -2 -10 -12 -22 -23 l-23 -19 19 23
c18 21 26 27 26 19z m-60 -50 c0 -2 -17 -19 -37 -38 l-38 -34 34 38 c33 34 41
42 41 34z m120 0 c0 -2 -10 -12 -22 -23 l-23 -19 19 23 c18 21 26 27 26 19z
m40 -1 c0 -2 -8 -10 -17 -17 -16 -13 -17 -12 -4 4 13 16 21 21 21 13z m-90 -9
c0 -2 -10 -12 -22 -23 l-23 -19 19 23 c18 21 26 27 26 19z m-50 -10 c0 -2 -10
-12 -22 -23 l-23 -19 19 23 c18 21 26 27 26 19z m-170 -10 c0 -2 -17 -19 -37
-38 l-38 -34 34 38 c33 34 41 42 41 34z m230 -40 c0 -2 -10 -12 -22 -23 l-23
-19 19 23 c18 21 26 27 26 19z m40 -1 c0 -2 -8 -10 -17 -17 -16 -13 -17 -12
-4 4 13 16 21 21 21 13z m-210 -9 c0 -2 -15 -16 -32 -33 l-33 -29 29 33 c28
30 36 37 36 29z m80 0 c0 -2 -12 -14 -27 -28 l-28 -24 24 28 c23 25 31 32 31
24z m40 0 c0 -2 -10 -12 -22 -23 l-23 -19 19 23 c18 21 26 27 26 19z m-90 -10
c0 -2 -12 -14 -27 -28 l-28 -24 24 28 c23 25 31 32 31 24z m100 -50 c0 -2 -10
-12 -22 -23 l-23 -19 19 23 c18 21 26 27 26 19z m-90 -10 c0 -2 -12 -14 -27
-28 l-28 -24 24 28 c23 25 31 32 31 24z m40 0 c0 -2 -10 -12 -22 -23 l-23 -19
19 23 c18 21 26 27 26 19z m-90 -10 c0 -2 -10 -12 -22 -23 l-23 -19 19 23 c18
21 26 27 26 19z m-50 -10 c0 -2 -10 -12 -22 -23 l-23 -19 19 23 c18 21 26 27
26 19z m100 -50 c0 -2 -10 -12 -22 -23 l-23 -19 19 23 c18 21 26 27 26 19z
m-90 -10 c0 -2 -10 -12 -22 -23 l-23 -19 19 23 c18 21 26 27 26 19z m40 -1 c0
-2 -8 -10 -17 -17 -16 -13 -17 -12 -4 4 13 16 21 21 21 13z m-30 -59 c0 -2
-10 -12 -22 -23 l-23 -19 19 23 c18 21 26 27 26 19z m-50 -10 c0 -2 -10 -12
-22 -23 l-23 -19 19 23 c18 21 26 27 26 19z"/>
<path d="M4771 6085 c-116 -103 -211 -191 -211 -197 0 -5 6 -6 13 -2 9 6 9 5
1 -7 -7 -8 -12 -26 -12 -42 0 -24 3 -26 17 -15 14 11 14 11 0 -7 -9 -11 -17
-33 -17 -48 0 -27 1 -28 22 -10 19 16 19 16 -1 -8 -13 -14 -23 -38 -23 -53 0
-26 2 -27 18 -15 16 13 16 13 0 -7 -10 -11 -18 -33 -18 -49 l0 -28 23 19 22
19 -21 -25 -22 -25 -5 -2092 -4 -2093 224 0 224 0 -5 1032 c-3 568 -5 1588 -6
2267 l0 1234 -22 -19 -23 -19 22 25 c19 22 22 37 22 103 0 56 -4 75 -12 70 -9
-5 -9 -3 -1 8 7 8 12 27 12 42 l0 28 -27 -23 c-79 -69 -90 -76 -32 -21 68 64
80 103 13 42 -26 -23 -24 -20 6 10 67 67 45 67 -33 0 l-70 -61 75 70 c41 39
72 73 68 77 -3 3 -101 -78 -217 -180z m199 40 c-7 -9 -40 -38 -74 -66 -60 -51
-60 -50 9 14 69 65 90 82 65 52z m-80 2 c0 -2 -19 -21 -42 -42 l-43 -40 40 43
c36 39 45 47 45 39z m-50 -11 c0 -2 -37 -36 -82 -76 l-83 -72 80 76 c79 75 85
80 85 72z m110 -39 c0 -2 -17 -19 -37 -38 l-38 -34 34 38 c33 34 41 42 41 34z
m-104 -26 c-3 -4 -61 -57 -128 -116 -68 -60 -112 -97 -98 -82 26 28 223 206
228 206 2 1 1 -3 -2 -8z m124 6 c0 -2 -10 -12 -22 -23 l-23 -19 19 23 c18 21
26 27 26 19z m-170 -11 c0 -2 -37 -36 -82 -76 l-83 -72 80 76 c79 75 85 80 85
72z m60 -49 c0 -2 -15 -16 -32 -33 l-33 -29 29 33 c28 30 36 37 36 29z m80 0
c0 -2 -12 -14 -27 -28 l-28 -24 24 28 c23 25 31 32 31 24z m40 0 c0 -2 -10
-12 -22 -23 l-23 -19 19 23 c18 21 26 27 26 19z m-170 -11 c0 -2 -37 -36 -82
-76 l-83 -72 80 76 c79 75 85 80 85 72z m80 1 c0 -2 -12 -14 -27 -28 l-28 -24
24 28 c23 25 31 32 31 24z m-220 -20 c0 -2 -19 -21 -42 -42 l-43 -40 40 43
c36 39 45 47 45 39z m230 -40 c0 -2 -12 -14 -27 -28 l-28 -24 24 28 c23 25 31
32 31 24z m40 0 c0 -2 -10 -12 -22 -23 l-23 -19 19 23 c18 21 26 27 26 19z
m-90 -10 c0 -2 -10 -12 -22 -23 l-23 -19 19 23 c18 21 26 27 26 19z m-50 -10
c0 -2 -10 -12 -22 -23 l-23 -19 19 23 c18 21 26 27 26 19z m-170 -10 c0 -2
-15 -16 -32 -33 l-33 -29 29 33 c28 30 36 37 36 29z m120 0 c0 -2 -10 -12 -22
-23 l-23 -19 19 23 c18 21 26 27 26 19z m150 -40 c0 -2 -10 -12 -22 -23 l-23
-19 19 23 c18 21 26 27 26 19z m-210 -10 c0 -2 -15 -16 -32 -33 l-33 -29 29
33 c28 30 36 37 36 29z m120 0 c0 -2 -10 -12 -22 -23 l-23 -19 19 23 c18 21
26 27 26 19z m40 -1 c0 -2 -8 -10 -17 -17 -16 -13 -17 -12 -4 4 13 16 21 21
21 13z m-210 -9 c0 -2 -17 -19 -37 -38 l-38 -34 34 38 c33 34 41 42 41 34z
m80 0 c0 -2 -12 -14 -27 -28 l-28 -24 24 28 c23 25 31 32 31 24z m40 0 c0 -2
-10 -12 -22 -23 l-23 -19 19 23 c18 21 26 27 26 19z m60 -50 c0 -2 -10 -12
-22 -23 l-23 -19 19 23 c18 21 26 27 26 19z m-50 -10 c0 -2 -10 -12 -22 -23
l-23 -19 19 23 c18 21 26 27 26 19z m-90 -10 c0 -2 -12 -14 -27 -28 l-28 -24
24 28 c23 25 31 32 31 24z m40 0 c0 -2 -10 -12 -22 -23 l-23 -19 19 23 c18 21
26 27 26 19z m-90 -10 c0 -2 -10 -12 -22 -23 l-23 -19 19 23 c18 21 26 27 26
19z m100 -50 c0 -2 -10 -12 -22 -23 l-23 -19 19 23 c18 21 26 27 26 19z m-90
-10 c0 -2 -12 -14 -27 -28 l-28 -24 24 28 c23 25 31 32 31 24z m40 0 c0 -2
-10 -12 -22 -23 l-23 -19 19 23 c18 21 26 27 26 19z m-40 -71 c0 -2 -8 -10
-17 -17 -16 -13 -17 -12 -4 4 13 16 21 21 21 13z"/>
<path d="M3940 5350 c-188 -166 -215 -193 -218 -222 l-4 -33 24 21 c13 11 63
56 113 100 49 43 84 71 76 62 -7 -10 -57 -56 -111 -103 -82 -72 -97 -90 -98
-117 l-1 -31 32 29 c78 70 97 83 35 24 -63 -60 -87 -92 -55 -74 10 6 10 4 0
-7 -7 -7 -13 -20 -13 -28 0 -10 8 -8 28 10 l27 24 -26 -30 c-14 -17 -26 -43
-27 -59 l-2 -30 32 30 c32 28 32 28 9 2 l-24 -28 211 0 212 0 -1 171 c0 158
-2 169 -17 157 -15 -11 -15 -10 1 8 9 11 17 33 17 49 l0 28 -22 -19 -23 -19
21 25 c11 14 21 38 22 54 l2 30 -27 -25 -28 -24 26 30 c19 22 26 41 26 73 1
43 1 43 -21 25 -18 -15 -18 -14 2 9 15 16 22 35 20 52 -3 23 -20 10 -218 -164z
m210 156 c0 -2 -37 -36 -82 -76 l-83 -72 80 76 c79 75 85 80 85 72z m-40 -70
c0 -2 -37 -36 -82 -76 l-83 -72 80 76 c79 75 85 80 85 72z m40 0 c0 -2 -55
-52 -122 -112 -68 -59 -112 -95 -98 -81 24 26 212 196 218 197 1 0 2 -2 2 -4z
m-30 -60 c0 -2 -37 -36 -82 -76 l-83 -72 80 76 c79 75 85 80 85 72z m-140 -19
c0 -2 -19 -21 -42 -42 l-43 -40 40 43 c36 39 45 47 45 39z m130 -60 c0 -2 -10
-12 -22 -23 l-23 -19 19 23 c18 21 26 27 26 19z m-50 -10 c0 -2 -10 -12 -22
-23 l-23 -19 19 23 c18 21 26 27 26 19z m-170 -11 c0 -2 -37 -36 -82 -76 l-83
-72 80 76 c79 75 85 80 85 72z m110 -39 c0 -2 -15 -16 -32 -33 l-33 -29 29 33
c28 30 36 37 36 29z m120 0 c0 -2 -10 -12 -22 -23 l-23 -19 19 23 c18 21 26
27 26 19z m-170 -10 c0 -2 -19 -21 -42 -42 l-43 -40 40 43 c36 39 45 47 45 39z
m80 0 c0 -2 -12 -14 -27 -28 l-28 -24 24 28 c23 25 31 32 31 24z m40 0 c0 -2
-10 -12 -22 -23 l-23 -19 19 23 c18 21 26 27 26 19z m-170 -11 c0 -2 -37 -36
-82 -76 l-83 -72 80 76 c79 75 85 80 85 72z m230 -39 c0 -2 -10 -12 -22 -23
l-23 -19 19 23 c18 21 26 27 26 19z m-50 -10 c0 -2 -10 -12 -22 -23 l-23 -19
19 23 c18 21 26 27 26 19z m-170 -10 c0 -2 -15 -16 -32 -33 l-33 -29 29 33
c28 30 36 37 36 29z m80 0 c0 -2 -12 -14 -27 -28 l-28 -24 24 28 c23 25 31 32
31 24z m40 0 c0 -2 -10 -12 -22 -23 l-23 -19 19 23 c18 21 26 27 26 19z m-90
-10 c0 -2 -10 -12 -22 -23 l-23 -19 19 23 c18 21 26 27 26 19z m100 -50 c0 -2
-10 -12 -22 -23 l-23 -19 19 23 c18 21 26 27 26 19z m-90 -10 c0 -2 -12 -14
-27 -28 l-28 -24 24 28 c23 25 31 32 31 24z m40 0 c0 -2 -10 -12 -22 -23 l-23
-19 19 23 c18 21 26 27 26 19z m-170 -10 c0 -2 -15 -16 -32 -33 l-33 -29 29
33 c28 30 36 37 36 29z m80 0 c0 -2 -10 -12 -22 -23 l-23 -19 19 23 c18 21 26
27 26 19z m-50 -10 c0 -2 -10 -12 -22 -23 l-23 -19 19 23 c18 21 26 27 26 19z
m60 -50 c0 -2 -10 -12 -22 -23 l-23 -19 19 23 c18 21 26 27 26 19z m40 -1 c0
-2 -8 -10 -17 -17 -16 -13 -17 -12 -4 4 13 16 21 21 21 13z m-90 -9 c0 -2 -10
-12 -22 -23 l-23 -19 19 23 c18 21 26 27 26 19z m-50 -10 c0 -2 -10 -12 -22
-23 l-23 -19 19 23 c18 21 26 27 26 19z m60 -50 c0 -2 -10 -12 -22 -23 l-23
-19 19 23 c18 21 26 27 26 19z m-50 -10 c0 -2 -10 -12 -22 -23 l-23 -19 19 23
c18 21 26 27 26 19z"/>
<path d="M5890 4709 c-175 -8 -241 -31 -333 -117 -55 -52 -97 -127 -124 -223
-17 -60 -18 -135 -18 -1319 0 -1190 1 -1258 18 -1315 55 -179 159 -280 329
-320 91 -21 626 -21 716 0 93 22 166 62 221 120 60 63 86 114 112 212 18 73
19 122 19 1302 0 1342 1 1298 -59 1428 -48 102 -133 173 -256 216 -39 13 -450
24 -625 16z m430 -421 c30 -16 50 -36 64 -63 21 -40 21 -49 21 -1170 0 -1128
0 -1130 -21 -1170 -37 -71 -65 -80 -254 -80 -196 0 -229 11 -267 85 l-23 44 0
1126 c0 1093 1 1126 20 1168 31 69 71 82 260 82 142 0 160 -2 200 -22z"/>
<path d="M2995 4515 c-193 -170 -220 -199 -223 -227 l-4 -33 29 25 28 25 -26
-30 c-14 -17 -26 -43 -27 -59 l-2 -30 27 25 c116 105 203 181 203 176 0 -3
-52 -52 -115 -108 -63 -56 -115 -106 -115 -111 0 -5 6 -6 13 -2 10 6 10 4 0
-7 -7 -7 -13 -20 -13 -28 0 -10 8 -8 28 10 l27 24 -27 -30 -27 -30 -1 -1353 0
-1352 225 0 225 0 0 600 0 600 225 0 c245 0 332 11 431 55 116 51 208 175 239
322 21 98 21 1246 1 1343 -32 151 -99 256 -201 315 -106 63 -286 94 -329 58
-19 -17 -20 -17 -7 0 20 26 -6 22 -38 -5 l-26 -23 19 23 c28 32 0 29 -38 -5
l-31 -28 24 28 24 27 -70 0 c-70 0 -72 -1 -124 -46 l-54 -47 46 46 46 45 -51
0 c-37 -1 -58 -6 -76 -22 l-25 -21 19 23 c14 16 16 22 5 22 -8 0 -113 -88
-234 -195z m324 182 c-2 -2 -26 -23 -54 -47 l-50 -43 47 47 c26 25 50 46 54
46 4 0 5 -1 3 -3z m151 0 c0 -2 -10 -12 -22 -23 l-23 -19 19 23 c18 21 26 27
26 19z m-50 -10 c0 -2 -10 -12 -22 -23 l-23 -19 19 23 c18 21 26 27 26 19z
m-174 -16 c-3 -4 -61 -57 -128 -116 -68 -60 -112 -97 -98 -82 26 28 223 206
228 206 2 1 1 -3 -2 -8z m124 6 c0 -2 -10 -12 -22 -23 l-23 -19 19 23 c18 21
26 27 26 19z m-170 -11 c0 -2 -37 -36 -82 -76 l-83 -72 80 76 c79 75 85 80 85
72z m320 -29 c0 -2 -10 -12 -22 -23 l-23 -19 19 23 c18 21 26 27 26 19z m-210
-10 c0 -2 -15 -16 -32 -33 l-33 -29 29 33 c28 30 36 37 36 29z m120 0 c0 -2
-10 -12 -22 -23 l-23 -19 19 23 c18 21 26 27 26 19z m40 -1 c0 -2 -8 -10 -17
-17 -16 -13 -17 -12 -4 4 13 16 21 21 21 13z m-210 -9 c0 -2 -19 -21 -42 -42
l-43 -40 40 43 c36 39 45 47 45 39z m80 0 c0 -2 -12 -14 -27 -28 l-28 -24 24
28 c23 25 31 32 31 24z m40 0 c0 -2 -10 -12 -22 -23 l-23 -19 19 23 c18 21 26
27 26 19z m-170 -11 c0 -2 -37 -36 -82 -76 l-83 -72 80 76 c79 75 85 80 85 72z
m230 -39 c0 -2 -10 -12 -22 -23 l-23 -19 19 23 c18 21 26 27 26 19z m-50 -10
c0 -2 -10 -12 -22 -23 l-23 -19 19 23 c18 21 26 27 26 19z m-170 -10 c0 -2
-15 -16 -32 -33 l-33 -29 29 33 c28 30 36 37 36 29z m80 0 c0 -2 -12 -14 -27
-28 l-28 -24 24 28 c23 25 31 32 31 24z m40 0 c0 -2 -10 -12 -22 -23 l-23 -19
19 23 c18 21 26 27 26 19z m-180 -22 c-7 -9 -40 -38 -74 -66 -60 -51 -60 -50
9 14 69 65 90 82 65 52z m90 12 c0 -2 -10 -12 -22 -23 l-23 -19 19 23 c18 21
26 27 26 19z m-224 -26 c-3 -4 -61 -57 -128 -116 -68 -60 -112 -97 -98 -82 26
28 223 206 228 206 2 1 1 -3 -2 -8z m324 -24 c0 -2 -10 -12 -22 -23 l-23 -19
19 23 c18 21 26 27 26 19z m-90 -10 c0 -2 -12 -14 -27 -28 l-28 -24 24 28 c23
25 31 32 31 24z m40 0 c0 -2 -10 -12 -22 -23 l-23 -19 19 23 c18 21 26 27 26
19z m-170 -10 c0 -2 -15 -16 -32 -33 l-33 -29 29 33 c28 30 36 37 36 29z m80
0 c0 -2 -10 -12 -22 -23 l-23 -19 19 23 c18 21 26 27 26 19z m-170 -10 c0 -2
-19 -21 -42 -42 l-43 -40 40 43 c36 39 45 47 45 39z m120 0 c0 -2 -10 -12 -22
-23 l-23 -19 19 23 c18 21 26 27 26 19z m-170 -11 c0 -2 -37 -36 -82 -76 l-83
-72 80 76 c79 75 85 80 85 72z m230 -39 c0 -2 -10 -12 -22 -23 l-23 -19 19 23
c18 21 26 27 26 19z m40 -1 c0 -2 -8 -10 -17 -17 -16 -13 -17 -12 -4 4 13 16
21 21 21 13z m-210 -9 c0 -2 -15 -16 -32 -33 l-33 -29 29 33 c28 30 36 37 36
29z m120 0 c0 -2 -10 -12 -22 -23 l-23 -19 19 23 c18 21 26 27 26 19z m-90
-10 c0 -2 -12 -14 -27 -28 l-28 -24 24 28 c23 25 31 32 31 24z m40 0 c0 -2
-10 -12 -22 -23 l-23 -19 19 23 c18 21 26 27 26 19z m-170 -11 c0 -2 -37 -36
-82 -76 l-83 -72 80 76 c79 75 85 80 85 72z m230 -39 c0 -2 -10 -12 -22 -23
l-23 -19 19 23 c18 21 26 27 26 19z m-90 -10 c0 -2 -12 -14 -27 -28 l-28 -24
24 28 c23 25 31 32 31 24z m40 0 c0 -2 -10 -12 -22 -23 l-23 -19 19 23 c18 21
26 27 26 19z m-90 -10 c0 -2 -12 -14 -27 -28 l-28 -24 24 28 c23 25 31 32 31
24z m535 -17 c42 -16 65 -39 86 -85 17 -37 19 -77 19 -560 0 -520 0 -521 -22
-565 -38 -75 -64 -83 -265 -88 l-173 -5 -1 389 c-1 214 -3 506 -5 649 -3 143
-2 266 1 273 4 12 35 13 168 9 89 -2 175 -10 192 -17z m-585 7 c0 -2 -10 -12
-22 -23 l-23 -19 19 23 c18 21 26 27 26 19z m-50 -10 c0 -2 -10 -12 -22 -23
l-23 -19 19 23 c18 21 26 27 26 19z m150 -40 c0 -2 -10 -12 -22 -23 l-23 -19
19 23 c18 21 26 27 26 19z m-210 -10 c0 -2 -17 -19 -37 -38 l-38 -34 34 38
c33 34 41 42 41 34z m120 0 c0 -2 -10 -12 -22 -23 l-23 -19 19 23 c18 21 26
27 26 19z m40 -1 c0 -2 -8 -10 -17 -17 -16 -13 -17 -12 -4 4 13 16 21 21 21
13z m-90 -9 c0 -2 -10 -12 -22 -23 l-23 -19 19 23 c18 21 26 27 26 19z m-50
-10 c0 -2 -10 -12 -22 -23 l-23 -19 19 23 c18 21 26 27 26 19z m60 -50 c0 -2
-10 -12 -22 -23 l-23 -19 19 23 c18 21 26 27 26 19z m40 -1 c0 -2 -8 -10 -17
-17 -16 -13 -17 -12 -4 4 13 16 21 21 21 13z m-130 -9 c0 -2 -12 -14 -27 -28
l-28 -24 24 28 c23 25 31 32 31 24z m40 0 c0 -2 -10 -12 -22 -23 l-23 -19 19
23 c18 21 26 27 26 19z m10 -60 c0 -2 -10 -12 -22 -23 l-23 -19 19 23 c18 21
26 27 26 19z m-90 -10 c0 -2 -12 -14 -27 -28 l-28 -24 24 28 c23 25 31 32 31
24z m40 0 c0 -2 -10 -12 -22 -23 l-23 -19 19 23 c18 21 26 27 26 19z m-40 -70
c0 -2 -10 -12 -22 -23 l-23 -19 19 23 c18 21 26 27 26 19z"/>
</g>
</svg>
